<svg xmlns="http://www.w3.org/2000/svg" viewBox="0 0 320 160" width="320" height="160">
<g fill="#06210f"><circle cx="222.5" cy="12.5" r="1.75"/><circle cx="227.5" cy="12.5" r="1.75"/><circle cx="232.5" cy="12.5" r="1.75"/><circle cx="237.5" cy="12.5" r="1.75"/><circle cx="242.5" cy="12.5" r="1.75"/><circle cx="217.5" cy="17.5" r="1.75"/><circle cx="247.5" cy="17.5" r="1.75"/><circle cx="252.5" cy="17.5" r="1.75"/><circle cx="212.5" cy="22.5" r="1.75"/><circle cx="232.5" cy="22.5" r="1.75"/><circle cx="237.5" cy="22.5" r="1.75"/><circle cx="247.5" cy="22.5" r="1.75"/><circle cx="252.5" cy="22.5" r="1.75"/><circle cx="187.5" cy="27.5" r="1.75"/><circle cx="207.5" cy="27.5" r="1.75"/><circle cx="212.5" cy="27.5" r="1.75"/><circle cx="232.5" cy="27.5" r="1.75"/><circle cx="252.5" cy="27.5" r="1.75"/><circle cx="257.5" cy="27.5" r="1.75"/><circle cx="262.5" cy="27.5" r="1.75"/><circle cx="182.5" cy="32.5" r="1.75"/><circle cx="207.5" cy="32.5" r="1.75"/><circle cx="232.5" cy="32.5" r="1.75"/><circle cx="252.5" cy="32.5" r="1.75"/><circle cx="262.5" cy="32.5" r="1.75"/><circle cx="272.5" cy="32.5" r="1.75"/><circle cx="207.5" cy="37.5" r="1.75"/><circle cx="232.5" cy="37.5" r="1.75"/><circle cx="237.5" cy="37.5" r="1.75"/><circle cx="247.5" cy="37.5" r="1.75"/><circle cx="262.5" cy="37.5" r="1.75"/><circle cx="207.5" cy="42.5" r="1.75"/><circle cx="212.5" cy="42.5" r="1.75"/><circle cx="292.5" cy="42.5" r="1.75"/><circle cx="212.5" cy="47.5" r="1.75"/><circle cx="262.5" cy="47.5" r="1.75"/><circle cx="162.5" cy="52.5" r="1.75"/><circle cx="217.5" cy="52.5" r="1.75"/><circle cx="247.5" cy="52.5" r="1.75"/><circle cx="252.5" cy="52.5" r="1.75"/><circle cx="257.5" cy="52.5" r="1.75"/><circle cx="222.5" cy="57.5" r="1.75"/><circle cx="227.5" cy="57.5" r="1.75"/><circle cx="232.5" cy="57.5" r="1.75"/><circle cx="242.5" cy="57.5" r="1.75"/><circle cx="212.5" cy="62.5" r="1.75"/><circle cx="212.5" cy="67.5" r="1.75"/><circle cx="242.5" cy="67.5" r="1.75"/><circle cx="212.5" cy="72.5" r="1.75"/><circle cx="242.5" cy="72.5" r="1.75"/><circle cx="212.5" cy="77.5" r="1.75"/><circle cx="242.5" cy="77.5" r="1.75"/><circle cx="212.5" cy="82.5" r="1.75"/><circle cx="237.5" cy="82.5" r="1.75"/><circle cx="212.5" cy="87.5" r="1.75"/><circle cx="237.5" cy="87.5" r="1.75"/><circle cx="162.5" cy="92.5" r="1.75"/><circle cx="212.5" cy="92.5" r="1.75"/><circle cx="237.5" cy="92.5" r="1.75"/><circle cx="292.5" cy="92.5" r="1.75"/><circle cx="212.5" cy="97.5" r="1.75"/><circle cx="237.5" cy="97.5" r="1.75"/><circle cx="172.5" cy="102.5" r="1.75"/><circle cx="212.5" cy="102.5" r="1.75"/><circle cx="237.5" cy="102.5" r="1.75"/><circle cx="282.5" cy="102.5" r="1.75"/><circle cx="212.5" cy="107.5" r="1.75"/><circle cx="237.5" cy="107.5" r="1.75"/><circle cx="247.5" cy="107.5" r="1.75"/><circle cx="122.5" cy="112.5" r="1.75"/><circle cx="127.5" cy="112.5" r="1.75"/><circle cx="132.5" cy="112.5" r="1.75"/><circle cx="137.5" cy="112.5" r="1.75"/><circle cx="142.5" cy="112.5" r="1.75"/><circle cx="147.5" cy="112.5" r="1.75"/><circle cx="192.5" cy="112.5" r="1.75"/><circle cx="202.5" cy="112.5" r="1.75"/><circle cx="212.5" cy="112.5" r="1.75"/><circle cx="237.5" cy="112.5" r="1.75"/><circle cx="252.5" cy="112.5" r="1.75"/><circle cx="262.5" cy="112.5" r="1.75"/><circle cx="97.5" cy="117.5" r="1.75"/><circle cx="102.5" cy="117.5" r="1.75"/><circle cx="107.5" cy="117.5" r="1.75"/><circle cx="112.5" cy="117.5" r="1.75"/><circle cx="157.5" cy="117.5" r="1.75"/><circle cx="162.5" cy="117.5" r="1.75"/><circle cx="167.5" cy="117.5" r="1.75"/><circle cx="172.5" cy="117.5" r="1.75"/><circle cx="177.5" cy="117.5" r="1.75"/><circle cx="182.5" cy="117.5" r="1.75"/><circle cx="212.5" cy="117.5" r="1.75"/><circle cx="237.5" cy="117.5" r="1.75"/><circle cx="82.5" cy="122.5" r="1.75"/><circle cx="87.5" cy="122.5" r="1.75"/><circle cx="92.5" cy="122.5" r="1.75"/><circle cx="192.5" cy="122.5" r="1.75"/><circle cx="197.5" cy="122.5" r="1.75"/><circle cx="202.5" cy="122.5" r="1.75"/><circle cx="212.5" cy="122.5" r="1.75"/><circle cx="237.5" cy="122.5" r="1.75"/><circle cx="67.5" cy="127.5" r="1.75"/><circle cx="72.5" cy="127.5" r="1.75"/><circle cx="77.5" cy="127.5" r="1.75"/><circle cx="212.5" cy="127.5" r="1.75"/><circle cx="237.5" cy="127.5" r="1.75"/><circle cx="7.5" cy="132.5" r="1.75"/><circle cx="12.5" cy="132.5" r="1.75"/><circle cx="17.5" cy="132.5" r="1.75"/><circle cx="47.5" cy="132.5" r="1.75"/><circle cx="52.5" cy="132.5" r="1.75"/><circle cx="57.5" cy="132.5" r="1.75"/><circle cx="62.5" cy="132.5" r="1.75"/><circle cx="212.5" cy="132.5" r="1.75"/><circle cx="237.5" cy="132.5" r="1.75"/><circle cx="2.5" cy="137.5" r="1.75"/><circle cx="27.5" cy="137.5" r="1.75"/><circle cx="32.5" cy="137.5" r="1.75"/><circle cx="37.5" cy="137.5" r="1.75"/><circle cx="97.5" cy="137.5" r="1.75"/><circle cx="102.5" cy="137.5" r="1.75"/><circle cx="107.5" cy="137.5" r="1.75"/><circle cx="112.5" cy="137.5" r="1.75"/><circle cx="117.5" cy="137.5" r="1.75"/><circle cx="122.5" cy="137.5" r="1.75"/><circle cx="127.5" cy="137.5" r="1.75"/><circle cx="132.5" cy="137.5" r="1.75"/><circle cx="137.5" cy="137.5" r="1.75"/><circle cx="142.5" cy="137.5" r="1.75"/><circle cx="147.5" cy="137.5" r="1.75"/><circle cx="152.5" cy="137.5" r="1.75"/><circle cx="212.5" cy="137.5" r="1.75"/><circle cx="237.5" cy="137.5" r="1.75"/><circle cx="7.5" cy="142.5" r="1.75"/><circle cx="77.5" cy="142.5" r="1.75"/><circle cx="82.5" cy="142.5" r="1.75"/><circle cx="87.5" cy="142.5" r="1.75"/><circle cx="92.5" cy="142.5" r="1.75"/><circle cx="157.5" cy="142.5" r="1.75"/><circle cx="162.5" cy="142.5" r="1.75"/><circle cx="167.5" cy="142.5" r="1.75"/><circle cx="172.5" cy="142.5" r="1.75"/><circle cx="217.5" cy="142.5" r="1.75"/><circle cx="222.5" cy="142.5" r="1.75"/><circle cx="227.5" cy="142.5" r="1.75"/><circle cx="232.5" cy="142.5" r="1.75"/><circle cx="12.5" cy="147.5" r="1.75"/><circle cx="17.5" cy="147.5" r="1.75"/><circle cx="22.5" cy="147.5" r="1.75"/><circle cx="27.5" cy="147.5" r="1.75"/><circle cx="32.5" cy="147.5" r="1.75"/><circle cx="37.5" cy="147.5" r="1.75"/><circle cx="42.5" cy="147.5" r="1.75"/><circle cx="47.5" cy="147.5" r="1.75"/><circle cx="52.5" cy="147.5" r="1.75"/><circle cx="57.5" cy="147.5" r="1.75"/><circle cx="62.5" cy="147.5" r="1.75"/><circle cx="67.5" cy="147.5" r="1.75"/><circle cx="72.5" cy="147.5" r="1.75"/><circle cx="177.5" cy="147.5" r="1.75"/><circle cx="182.5" cy="147.5" r="1.75"/><circle cx="187.5" cy="147.5" r="1.75"/><circle cx="192.5" cy="147.5" r="1.75"/><circle cx="197.5" cy="147.5" r="1.75"/><circle cx="202.5" cy="152.5" r="1.75"/><circle cx="207.5" cy="152.5" r="1.75"/><circle cx="212.5" cy="152.5" r="1.75"/><circle cx="217.5" cy="152.5" r="1.75"/><circle cx="222.5" cy="152.5" r="1.75"/><circle cx="227.5" cy="152.5" r="1.75"/></g>
<g fill="#3fb544"><circle cx="222.5" cy="17.5" r="1.75"/><circle cx="237.5" cy="17.5" r="1.75"/><circle cx="242.5" cy="17.5" r="1.75"/><circle cx="217.5" cy="22.5" r="1.75"/><circle cx="217.5" cy="27.5" r="1.75"/><circle cx="212.5" cy="32.5" r="1.75"/><circle cx="217.5" cy="32.5" r="1.75"/><circle cx="212.5" cy="37.5" r="1.75"/><circle cx="217.5" cy="37.5" r="1.75"/><circle cx="222.5" cy="37.5" r="1.75"/><circle cx="217.5" cy="42.5" r="1.75"/><circle cx="222.5" cy="42.5" r="1.75"/><circle cx="227.5" cy="42.5" r="1.75"/><circle cx="237.5" cy="42.5" r="1.75"/><circle cx="217.5" cy="47.5" r="1.75"/><circle cx="222.5" cy="47.5" r="1.75"/><circle cx="232.5" cy="47.5" r="1.75"/><circle cx="222.5" cy="52.5" r="1.75"/><circle cx="227.5" cy="52.5" r="1.75"/><circle cx="237.5" cy="52.5" r="1.75"/><circle cx="222.5" cy="67.5" r="1.75"/><circle cx="227.5" cy="67.5" r="1.75"/><circle cx="232.5" cy="67.5" r="1.75"/><circle cx="227.5" cy="72.5" r="1.75"/><circle cx="212.5" cy="147.5" r="1.75"/></g>
<g fill="#5dc741"><circle cx="227.5" cy="17.5" r="1.75"/><circle cx="232.5" cy="17.5" r="1.75"/><circle cx="222.5" cy="22.5" r="1.75"/><circle cx="227.5" cy="22.5" r="1.75"/><circle cx="222.5" cy="27.5" r="1.75"/><circle cx="227.5" cy="27.5" r="1.75"/><circle cx="222.5" cy="32.5" r="1.75"/><circle cx="227.5" cy="32.5" r="1.75"/><circle cx="227.5" cy="37.5" r="1.75"/></g>
<g fill="#fff6d5"><circle cx="242.5" cy="22.5" r="1.75"/><circle cx="237.5" cy="27.5" r="1.75"/><circle cx="242.5" cy="27.5" r="1.75"/><circle cx="247.5" cy="27.5" r="1.75"/><circle cx="237.5" cy="32.5" r="1.75"/><circle cx="247.5" cy="32.5" r="1.75"/><circle cx="242.5" cy="37.5" r="1.75"/></g>
<g fill="#0e4a20"><circle cx="192.5" cy="32.5" r="1.75"/><circle cx="177.5" cy="37.5" r="1.75"/><circle cx="197.5" cy="37.5" r="1.75"/><circle cx="277.5" cy="37.5" r="1.75"/><circle cx="172.5" cy="42.5" r="1.75"/><circle cx="182.5" cy="42.5" r="1.75"/><circle cx="187.5" cy="42.5" r="1.75"/><circle cx="192.5" cy="42.5" r="1.75"/><circle cx="167.5" cy="47.5" r="1.75"/><circle cx="177.5" cy="47.5" r="1.75"/><circle cx="277.5" cy="47.5" r="1.75"/><circle cx="172.5" cy="52.5" r="1.75"/><circle cx="282.5" cy="52.5" r="1.75"/><circle cx="292.5" cy="52.5" r="1.75"/><circle cx="167.5" cy="57.5" r="1.75"/><circle cx="287.5" cy="57.5" r="1.75"/><circle cx="162.5" cy="62.5" r="1.75"/><circle cx="167.5" cy="62.5" r="1.75"/><circle cx="287.5" cy="62.5" r="1.75"/><circle cx="292.5" cy="62.5" r="1.75"/><circle cx="167.5" cy="67.5" r="1.75"/><circle cx="287.5" cy="67.5" r="1.75"/><circle cx="162.5" cy="72.5" r="1.75"/><circle cx="292.5" cy="72.5" r="1.75"/><circle cx="167.5" cy="77.5" r="1.75"/><circle cx="287.5" cy="77.5" r="1.75"/><circle cx="162.5" cy="82.5" r="1.75"/><circle cx="167.5" cy="82.5" r="1.75"/><circle cx="172.5" cy="82.5" r="1.75"/><circle cx="282.5" cy="82.5" r="1.75"/><circle cx="287.5" cy="82.5" r="1.75"/><circle cx="292.5" cy="82.5" r="1.75"/><circle cx="167.5" cy="87.5" r="1.75"/><circle cx="177.5" cy="87.5" r="1.75"/><circle cx="287.5" cy="87.5" r="1.75"/><circle cx="172.5" cy="92.5" r="1.75"/><circle cx="182.5" cy="92.5" r="1.75"/><circle cx="272.5" cy="92.5" r="1.75"/><circle cx="282.5" cy="92.5" r="1.75"/><circle cx="177.5" cy="97.5" r="1.75"/><circle cx="187.5" cy="97.5" r="1.75"/><circle cx="197.5" cy="97.5" r="1.75"/><circle cx="247.5" cy="97.5" r="1.75"/><circle cx="257.5" cy="97.5" r="1.75"/><circle cx="267.5" cy="97.5" r="1.75"/><circle cx="277.5" cy="97.5" r="1.75"/><circle cx="182.5" cy="102.5" r="1.75"/><circle cx="192.5" cy="102.5" r="1.75"/><circle cx="202.5" cy="102.5" r="1.75"/><circle cx="252.5" cy="102.5" r="1.75"/><circle cx="262.5" cy="102.5" r="1.75"/><circle cx="272.5" cy="102.5" r="1.75"/></g>
<g fill="#000000"><circle cx="242.5" cy="32.5" r="1.75"/></g>
<g fill="#65cc40"><circle cx="257.5" cy="32.5" r="1.75"/><circle cx="252.5" cy="37.5" r="1.75"/><circle cx="257.5" cy="37.5" r="1.75"/><circle cx="247.5" cy="42.5" r="1.75"/><circle cx="252.5" cy="42.5" r="1.75"/><circle cx="257.5" cy="42.5" r="1.75"/><circle cx="242.5" cy="47.5" r="1.75"/><circle cx="247.5" cy="47.5" r="1.75"/><circle cx="252.5" cy="47.5" r="1.75"/><circle cx="257.5" cy="47.5" r="1.75"/></g>
<g fill="#ff3355"><circle cx="287.5" cy="37.5" r="1.75"/><circle cx="292.5" cy="37.5" r="1.75"/><circle cx="262.5" cy="42.5" r="1.75"/><circle cx="267.5" cy="42.5" r="1.75"/><circle cx="272.5" cy="42.5" r="1.75"/><circle cx="277.5" cy="42.5" r="1.75"/><circle cx="282.5" cy="42.5" r="1.75"/><circle cx="287.5" cy="47.5" r="1.75"/><circle cx="292.5" cy="47.5" r="1.75"/></g>
<g fill="#e9f5a0"><circle cx="232.5" cy="42.5" r="1.75"/><circle cx="242.5" cy="42.5" r="1.75"/><circle cx="227.5" cy="47.5" r="1.75"/><circle cx="237.5" cy="47.5" r="1.75"/><circle cx="232.5" cy="52.5" r="1.75"/><circle cx="242.5" cy="52.5" r="1.75"/><circle cx="237.5" cy="57.5" r="1.75"/></g>
<g fill="#1b7a35"><circle cx="187.5" cy="47.5" r="1.75"/><circle cx="197.5" cy="47.5" r="1.75"/><circle cx="182.5" cy="52.5" r="1.75"/><circle cx="187.5" cy="52.5" r="1.75"/><circle cx="192.5" cy="52.5" r="1.75"/><circle cx="197.5" cy="52.5" r="1.75"/><circle cx="202.5" cy="52.5" r="1.75"/><circle cx="272.5" cy="52.5" r="1.75"/><circle cx="277.5" cy="52.5" r="1.75"/><circle cx="177.5" cy="57.5" r="1.75"/><circle cx="187.5" cy="57.5" r="1.75"/><circle cx="192.5" cy="57.5" r="1.75"/><circle cx="197.5" cy="57.5" r="1.75"/><circle cx="202.5" cy="57.5" r="1.75"/><circle cx="207.5" cy="57.5" r="1.75"/><circle cx="267.5" cy="57.5" r="1.75"/><circle cx="277.5" cy="57.5" r="1.75"/><circle cx="172.5" cy="62.5" r="1.75"/><circle cx="177.5" cy="62.5" r="1.75"/><circle cx="182.5" cy="62.5" r="1.75"/><circle cx="187.5" cy="62.5" r="1.75"/><circle cx="192.5" cy="62.5" r="1.75"/><circle cx="197.5" cy="62.5" r="1.75"/><circle cx="202.5" cy="62.5" r="1.75"/><circle cx="207.5" cy="62.5" r="1.75"/><circle cx="252.5" cy="62.5" r="1.75"/><circle cx="257.5" cy="62.5" r="1.75"/><circle cx="262.5" cy="62.5" r="1.75"/><circle cx="267.5" cy="62.5" r="1.75"/><circle cx="272.5" cy="62.5" r="1.75"/><circle cx="277.5" cy="62.5" r="1.75"/><circle cx="282.5" cy="62.5" r="1.75"/><circle cx="177.5" cy="67.5" r="1.75"/><circle cx="182.5" cy="67.5" r="1.75"/><circle cx="187.5" cy="67.5" r="1.75"/><circle cx="192.5" cy="67.5" r="1.75"/><circle cx="197.5" cy="67.5" r="1.75"/><circle cx="202.5" cy="67.5" r="1.75"/><circle cx="207.5" cy="67.5" r="1.75"/><circle cx="247.5" cy="67.5" r="1.75"/><circle cx="252.5" cy="67.5" r="1.75"/><circle cx="257.5" cy="67.5" r="1.75"/><circle cx="262.5" cy="67.5" r="1.75"/><circle cx="267.5" cy="67.5" r="1.75"/><circle cx="272.5" cy="67.5" r="1.75"/><circle cx="277.5" cy="67.5" r="1.75"/><circle cx="172.5" cy="72.5" r="1.75"/><circle cx="177.5" cy="72.5" r="1.75"/><circle cx="182.5" cy="72.5" r="1.75"/><circle cx="187.5" cy="72.5" r="1.75"/><circle cx="192.5" cy="72.5" r="1.75"/><circle cx="197.5" cy="72.5" r="1.75"/><circle cx="202.5" cy="72.5" r="1.75"/><circle cx="247.5" cy="72.5" r="1.75"/><circle cx="252.5" cy="72.5" r="1.75"/><circle cx="257.5" cy="72.5" r="1.75"/><circle cx="262.5" cy="72.5" r="1.75"/><circle cx="267.5" cy="72.5" r="1.75"/><circle cx="272.5" cy="72.5" r="1.75"/><circle cx="277.5" cy="72.5" r="1.75"/><circle cx="282.5" cy="72.5" r="1.75"/><circle cx="177.5" cy="77.5" r="1.75"/><circle cx="182.5" cy="77.5" r="1.75"/><circle cx="187.5" cy="77.5" r="1.75"/><circle cx="192.5" cy="77.5" r="1.75"/><circle cx="197.5" cy="77.5" r="1.75"/><circle cx="202.5" cy="77.5" r="1.75"/><circle cx="247.5" cy="77.5" r="1.75"/><circle cx="252.5" cy="77.5" r="1.75"/><circle cx="257.5" cy="77.5" r="1.75"/><circle cx="262.5" cy="77.5" r="1.75"/><circle cx="267.5" cy="77.5" r="1.75"/><circle cx="272.5" cy="77.5" r="1.75"/><circle cx="277.5" cy="77.5" r="1.75"/><circle cx="177.5" cy="82.5" r="1.75"/><circle cx="182.5" cy="82.5" r="1.75"/><circle cx="187.5" cy="82.5" r="1.75"/><circle cx="192.5" cy="82.5" r="1.75"/><circle cx="197.5" cy="82.5" r="1.75"/><circle cx="202.5" cy="82.5" r="1.75"/><circle cx="247.5" cy="82.5" r="1.75"/><circle cx="252.5" cy="82.5" r="1.75"/><circle cx="257.5" cy="82.5" r="1.75"/><circle cx="262.5" cy="82.5" r="1.75"/><circle cx="267.5" cy="82.5" r="1.75"/><circle cx="272.5" cy="82.5" r="1.75"/><circle cx="277.5" cy="82.5" r="1.75"/><circle cx="187.5" cy="87.5" r="1.75"/><circle cx="197.5" cy="87.5" r="1.75"/><circle cx="247.5" cy="87.5" r="1.75"/><circle cx="257.5" cy="87.5" r="1.75"/><circle cx="267.5" cy="87.5" r="1.75"/><circle cx="277.5" cy="87.5" r="1.75"/><circle cx="187.5" cy="92.5" r="1.75"/><circle cx="192.5" cy="92.5" r="1.75"/><circle cx="197.5" cy="92.5" r="1.75"/><circle cx="202.5" cy="92.5" r="1.75"/><circle cx="247.5" cy="92.5" r="1.75"/><circle cx="252.5" cy="92.5" r="1.75"/><circle cx="257.5" cy="92.5" r="1.75"/><circle cx="262.5" cy="92.5" r="1.75"/><circle cx="267.5" cy="92.5" r="1.75"/></g>
<g fill="#3eb343"><circle cx="217.5" cy="67.5" r="1.75"/><circle cx="202.5" cy="132.5" r="1.75"/><circle cx="202.5" cy="137.5" r="1.75"/><circle cx="207.5" cy="147.5" r="1.75"/></g>
<g fill="#3fb444"><circle cx="237.5" cy="67.5" r="1.75"/><circle cx="222.5" cy="72.5" r="1.75"/><circle cx="232.5" cy="72.5" r="1.75"/><circle cx="207.5" cy="142.5" r="1.75"/></g>
<g fill="#3db043"><circle cx="217.5" cy="72.5" r="1.75"/><circle cx="197.5" cy="132.5" r="1.75"/></g>
<g fill="#3cb042"><circle cx="237.5" cy="72.5" r="1.75"/><circle cx="197.5" cy="142.5" r="1.75"/><circle cx="202.5" cy="147.5" r="1.75"/></g>
<g fill="#3bad42"><circle cx="217.5" cy="77.5" r="1.75"/><circle cx="222.5" cy="82.5" r="1.75"/><circle cx="192.5" cy="127.5" r="1.75"/></g>
<g fill="#3db143"><circle cx="222.5" cy="77.5" r="1.75"/><circle cx="232.5" cy="77.5" r="1.75"/><circle cx="197.5" cy="137.5" r="1.75"/></g>
<g fill="#3db243"><circle cx="227.5" cy="77.5" r="1.75"/><circle cx="202.5" cy="127.5" r="1.75"/></g>
<g fill="#3aab41"><circle cx="237.5" cy="77.5" r="1.75"/><circle cx="182.5" cy="132.5" r="1.75"/><circle cx="182.5" cy="137.5" r="1.75"/></g>
<g fill="#39aa41"><circle cx="217.5" cy="82.5" r="1.75"/></g>
<g fill="#3bae42"><circle cx="227.5" cy="82.5" r="1.75"/><circle cx="192.5" cy="142.5" r="1.75"/></g>
<g fill="#3bad41"><circle cx="232.5" cy="82.5" r="1.75"/><circle cx="187.5" cy="132.5" r="1.75"/><circle cx="187.5" cy="137.5" r="1.75"/></g>
<g fill="#38a740"><circle cx="217.5" cy="87.5" r="1.75"/><circle cx="227.5" cy="92.5" r="1.75"/><circle cx="182.5" cy="122.5" r="1.75"/></g>
<g fill="#39aa40"><circle cx="222.5" cy="87.5" r="1.75"/></g>
<g fill="#3aaa41"><circle cx="227.5" cy="87.5" r="1.75"/></g>
<g fill="#39a940"><circle cx="232.5" cy="87.5" r="1.75"/><circle cx="182.5" cy="127.5" r="1.75"/><circle cx="182.5" cy="142.5" r="1.75"/></g>
<g fill="#36a43f"><circle cx="217.5" cy="92.5" r="1.75"/><circle cx="172.5" cy="122.5" r="1.75"/><circle cx="167.5" cy="127.5" r="1.75"/><circle cx="167.5" cy="132.5" r="1.75"/><circle cx="167.5" cy="137.5" r="1.75"/></g>
<g fill="#37a63f"><circle cx="222.5" cy="92.5" r="1.75"/><circle cx="177.5" cy="122.5" r="1.75"/><circle cx="172.5" cy="127.5" r="1.75"/><circle cx="172.5" cy="132.5" r="1.75"/><circle cx="172.5" cy="137.5" r="1.75"/><circle cx="177.5" cy="142.5" r="1.75"/></g>
<g fill="#37a53f"><circle cx="232.5" cy="92.5" r="1.75"/></g>
<g fill="#34a03e"><circle cx="217.5" cy="97.5" r="1.75"/><circle cx="157.5" cy="127.5" r="1.75"/><circle cx="157.5" cy="132.5" r="1.75"/></g>
<g fill="#36a33e"><circle cx="222.5" cy="97.5" r="1.75"/><circle cx="227.5" cy="97.5" r="1.75"/></g>
<g fill="#35a13e"><circle cx="232.5" cy="97.5" r="1.75"/><circle cx="162.5" cy="122.5" r="1.75"/><circle cx="162.5" cy="137.5" r="1.75"/></g>
<g fill="#339d3c"><circle cx="217.5" cy="102.5" r="1.75"/></g>
<g fill="#349f3d"><circle cx="222.5" cy="102.5" r="1.75"/><circle cx="227.5" cy="102.5" r="1.75"/><circle cx="157.5" cy="122.5" r="1.75"/></g>
<g fill="#339e3d"><circle cx="232.5" cy="102.5" r="1.75"/><circle cx="152.5" cy="127.5" r="1.75"/><circle cx="152.5" cy="132.5" r="1.75"/><circle cx="157.5" cy="137.5" r="1.75"/></g>
<g fill="#31993b"><circle cx="217.5" cy="107.5" r="1.75"/><circle cx="147.5" cy="117.5" r="1.75"/><circle cx="142.5" cy="122.5" r="1.75"/><circle cx="142.5" cy="132.5" r="1.75"/></g>
<g fill="#329b3c"><circle cx="222.5" cy="107.5" r="1.75"/><circle cx="147.5" cy="122.5" r="1.75"/><circle cx="147.5" cy="132.5" r="1.75"/></g>
<g fill="#329c3c"><circle cx="227.5" cy="107.5" r="1.75"/><circle cx="147.5" cy="127.5" r="1.75"/></g>
<g fill="#319a3c"><circle cx="232.5" cy="107.5" r="1.75"/><circle cx="152.5" cy="117.5" r="1.75"/><circle cx="142.5" cy="127.5" r="1.75"/></g>
<g fill="#2f963a"><circle cx="217.5" cy="112.5" r="1.75"/><circle cx="137.5" cy="117.5" r="1.75"/><circle cx="132.5" cy="122.5" r="1.75"/><circle cx="132.5" cy="127.5" r="1.75"/></g>
<g fill="#30983b"><circle cx="222.5" cy="112.5" r="1.75"/><circle cx="227.5" cy="112.5" r="1.75"/><circle cx="137.5" cy="127.5" r="1.75"/></g>
<g fill="#2f963b"><circle cx="232.5" cy="112.5" r="1.75"/></g>
<g fill="#2a8c37"><circle cx="117.5" cy="117.5" r="1.75"/><circle cx="112.5" cy="132.5" r="1.75"/></g>
<g fill="#2c9038"><circle cx="122.5" cy="117.5" r="1.75"/></g>
<g fill="#2d9239"><circle cx="127.5" cy="117.5" r="1.75"/><circle cx="217.5" cy="117.5" r="1.75"/><circle cx="127.5" cy="132.5" r="1.75"/></g>
<g fill="#2e943a"><circle cx="132.5" cy="117.5" r="1.75"/><circle cx="222.5" cy="117.5" r="1.75"/><circle cx="227.5" cy="117.5" r="1.75"/><circle cx="132.5" cy="132.5" r="1.75"/></g>
<g fill="#30973b"><circle cx="142.5" cy="117.5" r="1.75"/><circle cx="137.5" cy="122.5" r="1.75"/><circle cx="137.5" cy="132.5" r="1.75"/></g>
<g fill="#2d9339"><circle cx="232.5" cy="117.5" r="1.75"/></g>
<g fill="#278635"><circle cx="97.5" cy="122.5" r="1.75"/><circle cx="222.5" cy="137.5" r="1.75"/><circle cx="227.5" cy="137.5" r="1.75"/></g>
<g fill="#288936"><circle cx="102.5" cy="122.5" r="1.75"/><circle cx="102.5" cy="127.5" r="1.75"/></g>
<g fill="#298b37"><circle cx="107.5" cy="122.5" r="1.75"/></g>
<g fill="#2b8d38"><circle cx="112.5" cy="122.5" r="1.75"/><circle cx="112.5" cy="127.5" r="1.75"/></g>
<g fill="#2c8f38"><circle cx="117.5" cy="122.5" r="1.75"/><circle cx="117.5" cy="127.5" r="1.75"/></g>
<g fill="#2d9139"><circle cx="122.5" cy="122.5" r="1.75"/><circle cx="122.5" cy="127.5" r="1.75"/></g>
<g fill="#2e933a"><circle cx="127.5" cy="122.5" r="1.75"/><circle cx="127.5" cy="127.5" r="1.75"/></g>
<g fill="#339d3d"><circle cx="152.5" cy="122.5" r="1.75"/></g>
<g fill="#36a23e"><circle cx="167.5" cy="122.5" r="1.75"/></g>
<g fill="#39a840"><circle cx="187.5" cy="122.5" r="1.75"/><circle cx="177.5" cy="132.5" r="1.75"/><circle cx="177.5" cy="137.5" r="1.75"/></g>
<g fill="#2b8f38"><circle cx="217.5" cy="122.5" r="1.75"/><circle cx="232.5" cy="122.5" r="1.75"/></g>
<g fill="#2c9039"><circle cx="222.5" cy="122.5" r="1.75"/><circle cx="122.5" cy="132.5" r="1.75"/></g>
<g fill="#2c9139"><circle cx="227.5" cy="122.5" r="1.75"/></g>
<g fill="#248034"><circle cx="82.5" cy="127.5" r="1.75"/><circle cx="82.5" cy="137.5" r="1.75"/></g>
<g fill="#258334"><circle cx="87.5" cy="127.5" r="1.75"/><circle cx="87.5" cy="132.5" r="1.75"/><circle cx="92.5" cy="137.5" r="1.75"/></g>
<g fill="#268535"><circle cx="92.5" cy="127.5" r="1.75"/></g>
<g fill="#278736"><circle cx="97.5" cy="127.5" r="1.75"/></g>
<g fill="#2a8b37"><circle cx="107.5" cy="127.5" r="1.75"/><circle cx="217.5" cy="127.5" r="1.75"/><circle cx="232.5" cy="127.5" r="1.75"/></g>
<g fill="#35a23e"><circle cx="162.5" cy="127.5" r="1.75"/><circle cx="162.5" cy="132.5" r="1.75"/></g>
<g fill="#38a840"><circle cx="177.5" cy="127.5" r="1.75"/></g>
<g fill="#3aac41"><circle cx="187.5" cy="127.5" r="1.75"/><circle cx="187.5" cy="142.5" r="1.75"/></g>
<g fill="#3caf42"><circle cx="197.5" cy="127.5" r="1.75"/><circle cx="192.5" cy="132.5" r="1.75"/><circle cx="192.5" cy="137.5" r="1.75"/></g>
<g fill="#2a8d38"><circle cx="222.5" cy="127.5" r="1.75"/><circle cx="227.5" cy="127.5" r="1.75"/></g>
<g fill="#217a32"><circle cx="67.5" cy="132.5" r="1.75"/><circle cx="67.5" cy="137.5" r="1.75"/><circle cx="72.5" cy="142.5" r="1.75"/></g>
<g fill="#227c32"><circle cx="72.5" cy="132.5" r="1.75"/><circle cx="72.5" cy="137.5" r="1.75"/></g>
<g fill="#237e33"><circle cx="77.5" cy="132.5" r="1.75"/><circle cx="77.5" cy="137.5" r="1.75"/></g>
<g fill="#248134"><circle cx="82.5" cy="132.5" r="1.75"/><circle cx="87.5" cy="137.5" r="1.75"/></g>
<g fill="#268435"><circle cx="92.5" cy="132.5" r="1.75"/><circle cx="217.5" cy="137.5" r="1.75"/><circle cx="232.5" cy="137.5" r="1.75"/></g>
<g fill="#278636"><circle cx="97.5" cy="132.5" r="1.75"/></g>
<g fill="#288836"><circle cx="102.5" cy="132.5" r="1.75"/></g>
<g fill="#298a37"><circle cx="107.5" cy="132.5" r="1.75"/></g>
<g fill="#2b8e38"><circle cx="117.5" cy="132.5" r="1.75"/></g>
<g fill="#288736"><circle cx="217.5" cy="132.5" r="1.75"/><circle cx="232.5" cy="132.5" r="1.75"/></g>
<g fill="#298936"><circle cx="222.5" cy="132.5" r="1.75"/><circle cx="227.5" cy="132.5" r="1.75"/></g>
<g fill="#14612a"><circle cx="7.5" cy="137.5" r="1.75"/></g>
<g fill="#15632b"><circle cx="12.5" cy="137.5" r="1.75"/><circle cx="12.5" cy="142.5" r="1.75"/></g>
<g fill="#16652b"><circle cx="17.5" cy="137.5" r="1.75"/><circle cx="17.5" cy="142.5" r="1.75"/></g>
<g fill="#17662c"><circle cx="22.5" cy="137.5" r="1.75"/></g>
<g fill="#1b6e2e"><circle cx="42.5" cy="137.5" r="1.75"/><circle cx="37.5" cy="142.5" r="1.75"/></g>
<g fill="#1c712f"><circle cx="47.5" cy="137.5" r="1.75"/></g>
<g fill="#1e7430"><circle cx="52.5" cy="137.5" r="1.75"/><circle cx="52.5" cy="142.5" r="1.75"/></g>
<g fill="#1f7631"><circle cx="57.5" cy="137.5" r="1.75"/></g>
<g fill="#207831"><circle cx="62.5" cy="137.5" r="1.75"/></g>
<g fill="#17682c"><circle cx="22.5" cy="142.5" r="1.75"/></g>
<g fill="#186a2d"><circle cx="27.5" cy="142.5" r="1.75"/></g>
<g fill="#1a6c2d"><circle cx="32.5" cy="142.5" r="1.75"/></g>
<g fill="#1c702f"><circle cx="42.5" cy="142.5" r="1.75"/></g>
<g fill="#1d722f"><circle cx="47.5" cy="142.5" r="1.75"/></g>
<g fill="#1f7630"><circle cx="57.5" cy="142.5" r="1.75"/></g>
<g fill="#1f7731"><circle cx="62.5" cy="142.5" r="1.75"/></g>
<g fill="#207931"><circle cx="67.5" cy="142.5" r="1.75"/></g>
<g fill="#3eb243"><circle cx="202.5" cy="142.5" r="1.75"/></g>
</svg>
