<svg xmlns="http://www.w3.org/2000/svg" viewBox="0 0 240 100" width="240" height="100">
<rect width="100%" height="100%" fill="#ffffff"/>
<g fill="#bc8cff"><circle cx="22.5" cy="22.5" r="2.125"/><circle cx="27.5" cy="22.5" r="2.125"/><circle cx="32.5" cy="22.5" r="2.125"/><circle cx="37.5" cy="22.5" r="2.125"/><circle cx="42.5" cy="22.5" r="2.125"/><circle cx="47.5" cy="22.5" r="2.125"/><circle cx="52.5" cy="22.5" r="2.125"/><circle cx="57.5" cy="22.5" r="2.125"/><circle cx="62.5" cy="22.5" r="2.125"/><circle cx="67.5" cy="22.5" r="2.125"/><circle cx="72.5" cy="22.5" r="2.125"/><circle cx="77.5" cy="22.5" r="2.125"/><circle cx="82.5" cy="22.5" r="2.125"/><circle cx="87.5" cy="22.5" r="2.125"/><circle cx="92.5" cy="22.5" r="2.125"/><circle cx="97.5" cy="22.5" r="2.125"/><circle cx="22.5" cy="27.5" r="2.125"/><circle cx="27.5" cy="27.5" r="2.125"/><circle cx="32.5" cy="27.5" r="2.125"/><circle cx="37.5" cy="27.5" r="2.125"/><circle cx="42.5" cy="27.5" r="2.125"/><circle cx="47.5" cy="27.5" r="2.125"/><circle cx="52.5" cy="27.5" r="2.125"/><circle cx="57.5" cy="27.5" r="2.125"/><circle cx="62.5" cy="27.5" r="2.125"/><circle cx="67.5" cy="27.5" r="2.125"/><circle cx="72.5" cy="27.5" r="2.125"/><circle cx="77.5" cy="27.5" r="2.125"/><circle cx="82.5" cy="27.5" r="2.125"/><circle cx="87.5" cy="27.5" r="2.125"/><circle cx="92.5" cy="27.5" r="2.125"/><circle cx="97.5" cy="27.5" r="2.125"/><circle cx="22.5" cy="32.5" r="2.125"/><circle cx="27.5" cy="32.5" r="2.125"/><circle cx="32.5" cy="32.5" r="2.125"/><circle cx="37.5" cy="32.5" r="2.125"/><circle cx="42.5" cy="32.5" r="2.125"/><circle cx="47.5" cy="32.5" r="2.125"/><circle cx="52.5" cy="32.5" r="2.125"/><circle cx="57.5" cy="32.5" r="2.125"/><circle cx="62.5" cy="32.5" r="2.125"/><circle cx="67.5" cy="32.5" r="2.125"/><circle cx="72.5" cy="32.5" r="2.125"/><circle cx="77.5" cy="32.5" r="2.125"/><circle cx="82.5" cy="32.5" r="2.125"/><circle cx="87.5" cy="32.5" r="2.125"/><circle cx="92.5" cy="32.5" r="2.125"/><circle cx="97.5" cy="32.5" r="2.125"/><circle cx="22.5" cy="37.5" r="2.125"/><circle cx="27.5" cy="37.5" r="2.125"/><circle cx="32.5" cy="37.5" r="2.125"/><circle cx="37.5" cy="37.5" r="2.125"/><circle cx="42.5" cy="37.5" r="2.125"/><circle cx="47.5" cy="37.5" r="2.125"/><circle cx="52.5" cy="37.5" r="2.125"/><circle cx="57.5" cy="37.5" r="2.125"/><circle cx="62.5" cy="37.5" r="2.125"/><circle cx="67.5" cy="37.5" r="2.125"/><circle cx="72.5" cy="37.5" r="2.125"/><circle cx="77.5" cy="37.5" r="2.125"/><circle cx="82.5" cy="37.5" r="2.125"/><circle cx="87.5" cy="37.5" r="2.125"/><circle cx="92.5" cy="37.5" r="2.125"/><circle cx="97.5" cy="37.5" r="2.125"/></g>
<rect x="30" y="20" width="10" height="20" fill="#bc8cff"/>
<text x="35" text-anchor="middle" y="35" font-family="monospace" font-size="16" fill="#ffffff">f</text>
<rect x="40" y="20" width="10" height="20" fill="#bc8cff"/>
<text x="45" text-anchor="middle" y="35" font-family="monospace" font-size="16" fill="#ffffff">i</text>
<rect x="50" y="20" width="10" height="20" fill="#bc8cff"/>
<text x="55" text-anchor="middle" y="35" font-family="monospace" font-size="16" fill="#ffffff">l</text>
<rect x="60" y="20" width="10" height="20" fill="#bc8cff"/>
<text x="65" text-anchor="middle" y="35" font-family="monospace" font-size="16" fill="#ffffff">l</text>
<rect x="70" y="20" width="10" height="20" fill="#bc8cff"/>
<text x="75" text-anchor="middle" y="35" font-family="monospace" font-size="16" fill="#ffffff">e</text>
<rect x="80" y="20" width="10" height="20" fill="#bc8cff"/>
<text x="85" text-anchor="middle" y="35" font-family="monospace" font-size="16" fill="#ffffff">d</text>
</svg>
