<svg xmlns="http://www.w3.org/2000/svg" viewBox="0 0 240 60" width="240" height="60">
<rect width="100%" height="100%" fill="#0d1117"/>
<g fill="#21262d"><circle cx="2.5" cy="2.5" r="2.125"/><circle cx="7.5" cy="2.5" r="2.125"/><circle cx="22.5" cy="2.5" r="2.125"/><circle cx="27.5" cy="2.5" r="2.125"/><circle cx="42.5" cy="2.5" r="2.125"/><circle cx="47.5" cy="2.5" r="2.125"/><circle cx="62.5" cy="2.5" r="2.125"/><circle cx="67.5" cy="2.5" r="2.125"/><circle cx="82.5" cy="2.5" r="2.125"/><circle cx="87.5" cy="2.5" r="2.125"/><circle cx="102.5" cy="2.5" r="2.125"/><circle cx="107.5" cy="2.5" r="2.125"/><circle cx="122.5" cy="2.5" r="2.125"/><circle cx="127.5" cy="2.5" r="2.125"/><circle cx="142.5" cy="2.5" r="2.125"/><circle cx="147.5" cy="2.5" r="2.125"/><circle cx="162.5" cy="2.5" r="2.125"/><circle cx="167.5" cy="2.5" r="2.125"/><circle cx="182.5" cy="2.5" r="2.125"/><circle cx="187.5" cy="2.5" r="2.125"/><circle cx="202.5" cy="2.5" r="2.125"/><circle cx="207.5" cy="2.5" r="2.125"/><circle cx="222.5" cy="2.5" r="2.125"/><circle cx="227.5" cy="2.5" r="2.125"/><circle cx="2.5" cy="7.5" r="2.125"/><circle cx="7.5" cy="7.5" r="2.125"/><circle cx="22.5" cy="7.5" r="2.125"/><circle cx="27.5" cy="7.5" r="2.125"/><circle cx="42.5" cy="7.5" r="2.125"/><circle cx="47.5" cy="7.5" r="2.125"/><circle cx="62.5" cy="7.5" r="2.125"/><circle cx="67.5" cy="7.5" r="2.125"/><circle cx="82.5" cy="7.5" r="2.125"/><circle cx="87.5" cy="7.5" r="2.125"/><circle cx="102.5" cy="7.5" r="2.125"/><circle cx="107.5" cy="7.5" r="2.125"/><circle cx="122.5" cy="7.5" r="2.125"/><circle cx="127.5" cy="7.5" r="2.125"/><circle cx="142.5" cy="7.5" r="2.125"/><circle cx="147.5" cy="7.5" r="2.125"/><circle cx="162.5" cy="7.5" r="2.125"/><circle cx="167.5" cy="7.5" r="2.125"/><circle cx="182.5" cy="7.5" r="2.125"/><circle cx="187.5" cy="7.5" r="2.125"/><circle cx="202.5" cy="7.5" r="2.125"/><circle cx="207.5" cy="7.5" r="2.125"/><circle cx="222.5" cy="7.5" r="2.125"/><circle cx="227.5" cy="7.5" r="2.125"/><circle cx="12.5" cy="12.5" r="2.125"/><circle cx="17.5" cy="12.5" r="2.125"/><circle cx="32.5" cy="12.5" r="2.125"/><circle cx="37.5" cy="12.5" r="2.125"/><circle cx="52.5" cy="12.5" r="2.125"/><circle cx="57.5" cy="12.5" r="2.125"/><circle cx="72.5" cy="12.5" r="2.125"/><circle cx="77.5" cy="12.5" r="2.125"/><circle cx="92.5" cy="12.5" r="2.125"/><circle cx="97.5" cy="12.5" r="2.125"/><circle cx="112.5" cy="12.5" r="2.125"/><circle cx="117.5" cy="12.5" r="2.125"/><circle cx="132.5" cy="12.5" r="2.125"/><circle cx="137.5" cy="12.5" r="2.125"/><circle cx="152.5" cy="12.5" r="2.125"/><circle cx="157.5" cy="12.5" r="2.125"/><circle cx="172.5" cy="12.5" r="2.125"/><circle cx="177.5" cy="12.5" r="2.125"/><circle cx="192.5" cy="12.5" r="2.125"/><circle cx="197.5" cy="12.5" r="2.125"/><circle cx="212.5" cy="12.5" r="2.125"/><circle cx="217.5" cy="12.5" r="2.125"/><circle cx="232.5" cy="12.5" r="2.125"/><circle cx="237.5" cy="12.5" r="2.125"/><circle cx="12.5" cy="17.5" r="2.125"/><circle cx="17.5" cy="17.5" r="2.125"/><circle cx="32.5" cy="17.5" r="2.125"/><circle cx="37.5" cy="17.5" r="2.125"/><circle cx="52.5" cy="17.5" r="2.125"/><circle cx="57.5" cy="17.5" r="2.125"/><circle cx="72.5" cy="17.5" r="2.125"/><circle cx="77.5" cy="17.5" r="2.125"/><circle cx="92.5" cy="17.5" r="2.125"/><circle cx="97.5" cy="17.5" r="2.125"/><circle cx="112.5" cy="17.5" r="2.125"/><circle cx="117.5" cy="17.5" r="2.125"/><circle cx="132.5" cy="17.5" r="2.125"/><circle cx="137.5" cy="17.5" r="2.125"/><circle cx="152.5" cy="17.5" r="2.125"/><circle cx="157.5" cy="17.5" r="2.125"/><circle cx="172.5" cy="17.5" r="2.125"/><circle cx="177.5" cy="17.5" r="2.125"/><circle cx="192.5" cy="17.5" r="2.125"/><circle cx="197.5" cy="17.5" r="2.125"/><circle cx="212.5" cy="17.5" r="2.125"/><circle cx="217.5" cy="17.5" r="2.125"/><circle cx="232.5" cy="17.5" r="2.125"/><circle cx="237.5" cy="17.5" r="2.125"/><circle cx="2.5" cy="22.5" r="2.125"/><circle cx="7.5" cy="22.5" r="2.125"/><circle cx="22.5" cy="22.5" r="2.125"/><circle cx="27.5" cy="22.5" r="2.125"/><circle cx="42.5" cy="22.5" r="2.125"/><circle cx="47.5" cy="22.5" r="2.125"/><circle cx="62.5" cy="22.5" r="2.125"/><circle cx="67.5" cy="22.5" r="2.125"/><circle cx="82.5" cy="22.5" r="2.125"/><circle cx="87.5" cy="22.5" r="2.125"/><circle cx="102.5" cy="22.5" r="2.125"/><circle cx="107.5" cy="22.5" r="2.125"/><circle cx="122.5" cy="22.5" r="2.125"/><circle cx="127.5" cy="22.5" r="2.125"/><circle cx="142.5" cy="22.5" r="2.125"/><circle cx="147.5" cy="22.5" r="2.125"/><circle cx="162.5" cy="22.5" r="2.125"/><circle cx="167.5" cy="22.5" r="2.125"/><circle cx="182.5" cy="22.5" r="2.125"/><circle cx="187.5" cy="22.5" r="2.125"/><circle cx="202.5" cy="22.5" r="2.125"/><circle cx="207.5" cy="22.5" r="2.125"/><circle cx="222.5" cy="22.5" r="2.125"/><circle cx="227.5" cy="22.5" r="2.125"/><circle cx="2.5" cy="27.5" r="2.125"/><circle cx="7.5" cy="27.5" r="2.125"/><circle cx="22.5" cy="27.5" r="2.125"/><circle cx="27.5" cy="27.5" r="2.125"/><circle cx="42.5" cy="27.5" r="2.125"/><circle cx="47.5" cy="27.5" r="2.125"/><circle cx="62.5" cy="27.5" r="2.125"/><circle cx="67.5" cy="27.5" r="2.125"/><circle cx="82.5" cy="27.5" r="2.125"/><circle cx="87.5" cy="27.5" r="2.125"/><circle cx="102.5" cy="27.5" r="2.125"/><circle cx="107.5" cy="27.5" r="2.125"/><circle cx="122.5" cy="27.5" r="2.125"/><circle cx="127.5" cy="27.5" r="2.125"/><circle cx="142.5" cy="27.5" r="2.125"/><circle cx="147.5" cy="27.5" r="2.125"/><circle cx="162.5" cy="27.5" r="2.125"/><circle cx="167.5" cy="27.5" r="2.125"/><circle cx="182.5" cy="27.5" r="2.125"/><circle cx="187.5" cy="27.5" r="2.125"/><circle cx="202.5" cy="27.5" r="2.125"/><circle cx="207.5" cy="27.5" r="2.125"/><circle cx="222.5" cy="27.5" r="2.125"/><circle cx="227.5" cy="27.5" r="2.125"/><circle cx="12.5" cy="32.5" r="2.125"/><circle cx="17.5" cy="32.5" r="2.125"/><circle cx="32.5" cy="32.5" r="2.125"/><circle cx="37.5" cy="32.5" r="2.125"/><circle cx="52.5" cy="32.5" r="2.125"/><circle cx="57.5" cy="32.5" r="2.125"/><circle cx="72.5" cy="32.5" r="2.125"/><circle cx="77.5" cy="32.5" r="2.125"/><circle cx="92.5" cy="32.5" r="2.125"/><circle cx="97.5" cy="32.5" r="2.125"/><circle cx="112.5" cy="32.5" r="2.125"/><circle cx="117.5" cy="32.5" r="2.125"/><circle cx="132.5" cy="32.5" r="2.125"/><circle cx="137.5" cy="32.5" r="2.125"/><circle cx="152.5" cy="32.5" r="2.125"/><circle cx="157.5" cy="32.5" r="2.125"/><circle cx="172.5" cy="32.5" r="2.125"/><circle cx="177.5" cy="32.5" r="2.125"/><circle cx="192.5" cy="32.5" r="2.125"/><circle cx="197.5" cy="32.5" r="2.125"/><circle cx="212.5" cy="32.5" r="2.125"/><circle cx="217.5" cy="32.5" r="2.125"/><circle cx="232.5" cy="32.5" r="2.125"/><circle cx="237.5" cy="32.5" r="2.125"/><circle cx="12.5" cy="37.5" r="2.125"/><circle cx="17.5" cy="37.5" r="2.125"/><circle cx="32.5" cy="37.5" r="2.125"/><circle cx="37.5" cy="37.5" r="2.125"/><circle cx="52.5" cy="37.5" r="2.125"/><circle cx="57.5" cy="37.5" r="2.125"/><circle cx="72.5" cy="37.5" r="2.125"/><circle cx="77.5" cy="37.5" r="2.125"/><circle cx="92.5" cy="37.5" r="2.125"/><circle cx="97.5" cy="37.5" r="2.125"/><circle cx="112.5" cy="37.5" r="2.125"/><circle cx="117.5" cy="37.5" r="2.125"/><circle cx="132.5" cy="37.5" r="2.125"/><circle cx="137.5" cy="37.5" r="2.125"/><circle cx="152.5" cy="37.5" r="2.125"/><circle cx="157.5" cy="37.5" r="2.125"/><circle cx="172.5" cy="37.5" r="2.125"/><circle cx="177.5" cy="37.5" r="2.125"/><circle cx="192.5" cy="37.5" r="2.125"/><circle cx="197.5" cy="37.5" r="2.125"/><circle cx="212.5" cy="37.5" r="2.125"/><circle cx="217.5" cy="37.5" r="2.125"/><circle cx="232.5" cy="37.5" r="2.125"/><circle cx="237.5" cy="37.5" r="2.125"/><circle cx="2.5" cy="42.5" r="2.125"/><circle cx="7.5" cy="42.5" r="2.125"/><circle cx="22.5" cy="42.5" r="2.125"/><circle cx="27.5" cy="42.5" r="2.125"/><circle cx="42.5" cy="42.5" r="2.125"/><circle cx="47.5" cy="42.5" r="2.125"/><circle cx="62.5" cy="42.5" r="2.125"/><circle cx="67.5" cy="42.5" r="2.125"/><circle cx="82.5" cy="42.5" r="2.125"/><circle cx="87.5" cy="42.5" r="2.125"/><circle cx="102.5" cy="42.5" r="2.125"/><circle cx="107.5" cy="42.5" r="2.125"/><circle cx="122.5" cy="42.5" r="2.125"/><circle cx="127.5" cy="42.5" r="2.125"/><circle cx="142.5" cy="42.5" r="2.125"/><circle cx="147.5" cy="42.5" r="2.125"/><circle cx="162.5" cy="42.5" r="2.125"/><circle cx="167.5" cy="42.5" r="2.125"/><circle cx="182.5" cy="42.5" r="2.125"/><circle cx="187.5" cy="42.5" r="2.125"/><circle cx="202.5" cy="42.5" r="2.125"/><circle cx="207.5" cy="42.5" r="2.125"/><circle cx="222.5" cy="42.5" r="2.125"/><circle cx="227.5" cy="42.5" r="2.125"/><circle cx="2.5" cy="47.5" r="2.125"/><circle cx="7.5" cy="47.5" r="2.125"/><circle cx="22.5" cy="47.5" r="2.125"/><circle cx="27.5" cy="47.5" r="2.125"/><circle cx="42.5" cy="47.5" r="2.125"/><circle cx="47.5" cy="47.5" r="2.125"/><circle cx="62.5" cy="47.5" r="2.125"/><circle cx="67.5" cy="47.5" r="2.125"/><circle cx="82.5" cy="47.5" r="2.125"/><circle cx="87.5" cy="47.5" r="2.125"/><circle cx="102.5" cy="47.5" r="2.125"/><circle cx="107.5" cy="47.5" r="2.125"/><circle cx="122.5" cy="47.5" r="2.125"/><circle cx="127.5" cy="47.5" r="2.125"/><circle cx="142.5" cy="47.5" r="2.125"/><circle cx="147.5" cy="47.5" r="2.125"/><circle cx="162.5" cy="47.5" r="2.125"/><circle cx="167.5" cy="47.5" r="2.125"/><circle cx="182.5" cy="47.5" r="2.125"/><circle cx="187.5" cy="47.5" r="2.125"/><circle cx="202.5" cy="47.5" r="2.125"/><circle cx="207.5" cy="47.5" r="2.125"/><circle cx="222.5" cy="47.5" r="2.125"/><circle cx="227.5" cy="47.5" r="2.125"/><circle cx="12.5" cy="52.5" r="2.125"/><circle cx="17.5" cy="52.5" r="2.125"/><circle cx="32.5" cy="52.5" r="2.125"/><circle cx="37.5" cy="52.5" r="2.125"/><circle cx="52.5" cy="52.5" r="2.125"/><circle cx="57.5" cy="52.5" r="2.125"/><circle cx="72.5" cy="52.5" r="2.125"/><circle cx="77.5" cy="52.5" r="2.125"/><circle cx="92.5" cy="52.5" r="2.125"/><circle cx="97.5" cy="52.5" r="2.125"/><circle cx="112.5" cy="52.5" r="2.125"/><circle cx="117.5" cy="52.5" r="2.125"/><circle cx="132.5" cy="52.5" r="2.125"/><circle cx="137.5" cy="52.5" r="2.125"/><circle cx="152.5" cy="52.5" r="2.125"/><circle cx="157.5" cy="52.5" r="2.125"/><circle cx="172.5" cy="52.5" r="2.125"/><circle cx="177.5" cy="52.5" r="2.125"/><circle cx="192.5" cy="52.5" r="2.125"/><circle cx="197.5" cy="52.5" r="2.125"/><circle cx="212.5" cy="52.5" r="2.125"/><circle cx="217.5" cy="52.5" r="2.125"/><circle cx="232.5" cy="52.5" r="2.125"/><circle cx="237.5" cy="52.5" r="2.125"/><circle cx="12.5" cy="57.5" r="2.125"/><circle cx="17.5" cy="57.5" r="2.125"/><circle cx="32.5" cy="57.5" r="2.125"/><circle cx="37.5" cy="57.5" r="2.125"/><circle cx="52.5" cy="57.5" r="2.125"/><circle cx="57.5" cy="57.5" r="2.125"/><circle cx="72.5" cy="57.5" r="2.125"/><circle cx="77.5" cy="57.5" r="2.125"/><circle cx="92.5" cy="57.5" r="2.125"/><circle cx="97.5" cy="57.5" r="2.125"/><circle cx="112.5" cy="57.5" r="2.125"/><circle cx="117.5" cy="57.5" r="2.125"/><circle cx="132.5" cy="57.5" r="2.125"/><circle cx="137.5" cy="57.5" r="2.125"/><circle cx="152.5" cy="57.5" r="2.125"/><circle cx="157.5" cy="57.5" r="2.125"/><circle cx="172.5" cy="57.5" r="2.125"/><circle cx="177.5" cy="57.5" r="2.125"/><circle cx="192.5" cy="57.5" r="2.125"/><circle cx="197.5" cy="57.5" r="2.125"/><circle cx="212.5" cy="57.5" r="2.125"/><circle cx="217.5" cy="57.5" r="2.125"/><circle cx="232.5" cy="57.5" r="2.125"/><circle cx="237.5" cy="57.5" r="2.125"/></g>
<text x="15" text-anchor="middle" y="35" font-family="monospace" font-size="16" fill="#e6edf3" font-weight="bold">R</text>
<text x="25" text-anchor="middle" y="35" font-family="monospace" font-size="16" fill="#e6edf3" font-weight="bold">e</text>
<text x="35" text-anchor="middle" y="35" font-family="monospace" font-size="16" fill="#e6edf3" font-weight="bold">a</text>
<text x="45" text-anchor="middle" y="35" font-family="monospace" font-size="16" fill="#e6edf3" font-weight="bold">l</text>
<text x="55" text-anchor="middle" y="35" font-family="monospace" font-size="16" fill="#e6edf3" font-weight="bold"> </text>
<text x="65" text-anchor="middle" y="35" font-family="monospace" font-size="16" fill="#e6edf3" font-weight="bold">t</text>
<text x="75" text-anchor="middle" y="35" font-family="monospace" font-size="16" fill="#e6edf3" font-weight="bold">e</text>
<text x="85" text-anchor="middle" y="35" font-family="monospace" font-size="16" fill="#e6edf3" font-weight="bold">x</text>
<text x="95" text-anchor="middle" y="35" font-family="monospace" font-size="16" fill="#e6edf3" font-weight="bold">t</text>
<text x="105" text-anchor="middle" y="35" font-family="monospace" font-size="16" fill="#e6edf3" font-weight="bold">:</text>
<text x="115" text-anchor="middle" y="35" font-family="monospace" font-size="16" fill="#e6edf3" font-weight="bold"> </text>
<text x="125" text-anchor="middle" y="35" font-family="monospace" font-size="16" fill="#e6edf3" font-weight="bold">日</text>
<text x="145" text-anchor="middle" y="35" font-family="monospace" font-size="16" fill="#e6edf3" font-weight="bold">本</text>
<text x="165" text-anchor="middle" y="35" font-family="monospace" font-size="16" fill="#e6edf3" font-weight="bold">語</text>
<text x="185" text-anchor="middle" y="35" font-family="monospace" font-size="16" fill="#e6edf3" font-weight="bold"> </text>
<text x="195" text-anchor="middle" y="35" font-family="monospace" font-size="16" fill="#e6edf3" font-weight="bold">✓</text>
</svg>
