<svg xmlns="http://www.w3.org/2000/svg" viewBox="0 0 240 80" width="240" height="80">
<rect width="100%" height="100%" fill="#ffffff"/>
<g fill="#5ba4fc"><circle cx="237.5" cy="67.5" r="2.125"/></g>
<g fill="#5fa3f9"><circle cx="232.5" cy="67.5" r="2.125"/></g>
<g fill="#62a1f7"><circle cx="227.5" cy="67.5" r="2.125"/></g>
<g fill="#66a0f4"><circle cx="222.5" cy="67.5" r="2.125"/></g>
<g fill="#699ef1"><circle cx="217.5" cy="62.5" r="2.125"/></g>
<g fill="#6d9dee"><circle cx="212.5" cy="57.5" r="2.125"/></g>
<g fill="#709bec"><circle cx="207.5" cy="57.5" r="2.125"/></g>
<g fill="#749ae9"><circle cx="202.5" cy="52.5" r="2.125"/></g>
<g fill="#7798e6"><circle cx="197.5" cy="47.5" r="2.125"/></g>
<g fill="#7b97e3"><circle cx="192.5" cy="42.5" r="2.125"/></g>
<g fill="#7e95e1"><circle cx="187.5" cy="37.5" r="2.125"/></g>
<g fill="#8294de"><circle cx="182.5" cy="32.5" r="2.125"/></g>
<g fill="#8592db"><circle cx="177.5" cy="27.5" r="2.125"/></g>
<g fill="#8990d8"><circle cx="172.5" cy="22.5" r="2.125"/></g>
<g fill="#8c8fd5"><circle cx="167.5" cy="17.5" r="2.125"/></g>
<g fill="#908dd3"><circle cx="162.5" cy="17.5" r="2.125"/></g>
<g fill="#938cd0"><circle cx="157.5" cy="12.5" r="2.125"/></g>
<g fill="#978acd"><circle cx="152.5" cy="12.5" r="2.125"/></g>
<g fill="#9a89ca"><circle cx="147.5" cy="12.5" r="2.125"/></g>
<g fill="#9e87c8"><circle cx="142.5" cy="12.5" r="2.125"/></g>
<g fill="#a186c5"><circle cx="137.5" cy="12.5" r="2.125"/></g>
<g fill="#a584c2"><circle cx="132.5" cy="12.5" r="2.125"/></g>
<g fill="#a883bf"><circle cx="127.5" cy="12.5" r="2.125"/></g>
<g fill="#ac81bd"><circle cx="122.5" cy="17.5" r="2.125"/></g>
<g fill="#af7fba"><circle cx="117.5" cy="22.5" r="2.125"/></g>
<g fill="#b27eb7"><circle cx="112.5" cy="22.5" r="2.125"/></g>
<g fill="#b67cb4"><circle cx="107.5" cy="27.5" r="2.125"/></g>
<g fill="#b97bb1"><circle cx="102.5" cy="32.5" r="2.125"/></g>
<g fill="#bd79af"><circle cx="97.5" cy="37.5" r="2.125"/></g>
<g fill="#c078ac"><circle cx="92.5" cy="42.5" r="2.125"/></g>
<g fill="#c476a9"><circle cx="87.5" cy="47.5" r="2.125"/></g>
<g fill="#c775a6"><circle cx="82.5" cy="52.5" r="2.125"/></g>
<g fill="#cb73a4"><circle cx="77.5" cy="57.5" r="2.125"/></g>
<g fill="#ce72a1"><circle cx="72.5" cy="62.5" r="2.125"/></g>
<g fill="#d2709e"><circle cx="67.5" cy="62.5" r="2.125"/></g>
<g fill="#d56f9b"><circle cx="62.5" cy="67.5" r="2.125"/></g>
<g fill="#d96d98"><circle cx="57.5" cy="67.5" r="2.125"/></g>
<g fill="#dc6b96"><circle cx="52.5" cy="67.5" r="2.125"/></g>
<g fill="#e06a93"><circle cx="47.5" cy="67.5" r="2.125"/></g>
<g fill="#e36890"><circle cx="42.5" cy="67.5" r="2.125"/></g>
<g fill="#e7678d"><circle cx="37.5" cy="67.5" r="2.125"/></g>
<g fill="#ea658b"><circle cx="32.5" cy="67.5" r="2.125"/></g>
<g fill="#ee6488"><circle cx="27.5" cy="62.5" r="2.125"/></g>
<g fill="#f16285"><circle cx="22.5" cy="57.5" r="2.125"/></g>
<g fill="#f56182"><circle cx="17.5" cy="52.5" r="2.125"/></g>
<g fill="#f85f80"><circle cx="12.5" cy="47.5" r="2.125"/></g>
<g fill="#fc5e7d"><circle cx="7.5" cy="42.5" r="2.125"/></g>
<g fill="#ff5c7a"><circle cx="2.5" cy="42.5" r="2.125"/></g>
</svg>
