<svg xmlns="http://www.w3.org/2000/svg" viewBox="0 0 240 60" width="240" height="60">
<rect width="100%" height="100%" fill="#0d1117"/>
<g fill="#ff5c7a"><circle cx="7.5" cy="7.5" r="2.125"/><circle cx="12.5" cy="7.5" r="2.125"/><circle cx="17.5" cy="7.5" r="2.125"/><circle cx="47.5" cy="7.5" r="2.125"/><circle cx="57.5" cy="7.5" r="2.125"/><circle cx="97.5" cy="7.5" r="2.125"/><circle cx="127.5" cy="7.5" r="2.125"/><circle cx="12.5" cy="12.5" r="2.125"/><circle cx="42.5" cy="12.5" r="2.125"/><circle cx="47.5" cy="12.5" r="2.125"/><circle cx="52.5" cy="12.5" r="2.125"/><circle cx="57.5" cy="12.5" r="2.125"/><circle cx="62.5" cy="12.5" r="2.125"/><circle cx="92.5" cy="12.5" r="2.125"/><circle cx="97.5" cy="12.5" r="2.125"/><circle cx="112.5" cy="12.5" r="2.125"/><circle cx="127.5" cy="12.5" r="2.125"/><circle cx="132.5" cy="12.5" r="2.125"/><circle cx="147.5" cy="12.5" r="2.125"/><circle cx="152.5" cy="12.5" r="2.125"/><circle cx="12.5" cy="17.5" r="2.125"/><circle cx="42.5" cy="17.5" r="2.125"/><circle cx="47.5" cy="17.5" r="2.125"/><circle cx="52.5" cy="17.5" r="2.125"/><circle cx="57.5" cy="17.5" r="2.125"/><circle cx="62.5" cy="17.5" r="2.125"/><circle cx="87.5" cy="17.5" r="2.125"/><circle cx="97.5" cy="17.5" r="2.125"/><circle cx="107.5" cy="17.5" r="2.125"/><circle cx="117.5" cy="17.5" r="2.125"/><circle cx="127.5" cy="17.5" r="2.125"/><circle cx="142.5" cy="17.5" r="2.125"/><circle cx="147.5" cy="17.5" r="2.125"/><circle cx="12.5" cy="22.5" r="2.125"/><circle cx="47.5" cy="22.5" r="2.125"/><circle cx="52.5" cy="22.5" r="2.125"/><circle cx="57.5" cy="22.5" r="2.125"/><circle cx="87.5" cy="22.5" r="2.125"/><circle cx="97.5" cy="22.5" r="2.125"/><circle cx="107.5" cy="22.5" r="2.125"/><circle cx="117.5" cy="22.5" r="2.125"/><circle cx="127.5" cy="22.5" r="2.125"/><circle cx="152.5" cy="22.5" r="2.125"/><circle cx="7.5" cy="27.5" r="2.125"/><circle cx="12.5" cy="27.5" r="2.125"/><circle cx="17.5" cy="27.5" r="2.125"/><circle cx="52.5" cy="27.5" r="2.125"/><circle cx="92.5" cy="27.5" r="2.125"/><circle cx="97.5" cy="27.5" r="2.125"/><circle cx="112.5" cy="27.5" r="2.125"/><circle cx="132.5" cy="27.5" r="2.125"/><circle cx="142.5" cy="27.5" r="2.125"/><circle cx="147.5" cy="27.5" r="2.125"/></g>
</svg>
