<svg xmlns="http://www.w3.org/2000/svg" viewBox="0 0 280 80" width="280" height="80">
<rect width="100%" height="100%" fill="#ffffff"/>
<g fill="#58a6ff"><circle cx="27.5" cy="7.5" r="2.125"/><circle cx="32.5" cy="7.5" r="2.125"/><circle cx="37.5" cy="7.5" r="2.125"/><circle cx="42.5" cy="7.5" r="2.125"/><circle cx="47.5" cy="7.5" r="2.125"/><circle cx="52.5" cy="7.5" r="2.125"/><circle cx="22.5" cy="12.5" r="2.125"/><circle cx="27.5" cy="12.5" r="2.125"/><circle cx="32.5" cy="12.5" r="2.125"/><circle cx="37.5" cy="12.5" r="2.125"/><circle cx="42.5" cy="12.5" r="2.125"/><circle cx="47.5" cy="12.5" r="2.125"/><circle cx="52.5" cy="12.5" r="2.125"/><circle cx="57.5" cy="12.5" r="2.125"/><circle cx="17.5" cy="17.5" r="2.125"/><circle cx="22.5" cy="17.5" r="2.125"/><circle cx="27.5" cy="17.5" r="2.125"/><circle cx="32.5" cy="17.5" r="2.125"/><circle cx="37.5" cy="17.5" r="2.125"/><circle cx="42.5" cy="17.5" r="2.125"/><circle cx="47.5" cy="17.5" r="2.125"/><circle cx="52.5" cy="17.5" r="2.125"/><circle cx="57.5" cy="17.5" r="2.125"/><circle cx="62.5" cy="17.5" r="2.125"/><circle cx="12.5" cy="22.5" r="2.125"/><circle cx="17.5" cy="22.5" r="2.125"/><circle cx="22.5" cy="22.5" r="2.125"/><circle cx="27.5" cy="22.5" r="2.125"/><circle cx="32.5" cy="22.5" r="2.125"/><circle cx="37.5" cy="22.5" r="2.125"/><circle cx="42.5" cy="22.5" r="2.125"/><circle cx="47.5" cy="22.5" r="2.125"/><circle cx="52.5" cy="22.5" r="2.125"/><circle cx="57.5" cy="22.5" r="2.125"/><circle cx="62.5" cy="22.5" r="2.125"/><circle cx="67.5" cy="22.5" r="2.125"/><circle cx="7.5" cy="27.5" r="2.125"/><circle cx="12.5" cy="27.5" r="2.125"/><circle cx="17.5" cy="27.5" r="2.125"/><circle cx="22.5" cy="27.5" r="2.125"/><circle cx="27.5" cy="27.5" r="2.125"/><circle cx="32.5" cy="27.5" r="2.125"/><circle cx="37.5" cy="27.5" r="2.125"/><circle cx="42.5" cy="27.5" r="2.125"/><circle cx="47.5" cy="27.5" r="2.125"/><circle cx="52.5" cy="27.5" r="2.125"/><circle cx="57.5" cy="27.5" r="2.125"/><circle cx="62.5" cy="27.5" r="2.125"/><circle cx="67.5" cy="27.5" r="2.125"/><circle cx="72.5" cy="27.5" r="2.125"/><circle cx="7.5" cy="32.5" r="2.125"/><circle cx="12.5" cy="32.5" r="2.125"/><circle cx="17.5" cy="32.5" r="2.125"/><circle cx="22.5" cy="32.5" r="2.125"/><circle cx="27.5" cy="32.5" r="2.125"/><circle cx="32.5" cy="32.5" r="2.125"/><circle cx="37.5" cy="32.5" r="2.125"/><circle cx="42.5" cy="32.5" r="2.125"/><circle cx="47.5" cy="32.5" r="2.125"/><circle cx="52.5" cy="32.5" r="2.125"/><circle cx="57.5" cy="32.5" r="2.125"/><circle cx="62.5" cy="32.5" r="2.125"/><circle cx="67.5" cy="32.5" r="2.125"/><circle cx="72.5" cy="32.5" r="2.125"/><circle cx="7.5" cy="37.5" r="2.125"/><circle cx="12.5" cy="37.5" r="2.125"/><circle cx="17.5" cy="37.5" r="2.125"/><circle cx="22.5" cy="37.5" r="2.125"/><circle cx="27.5" cy="37.5" r="2.125"/><circle cx="32.5" cy="37.5" r="2.125"/><circle cx="37.5" cy="37.5" r="2.125"/><circle cx="42.5" cy="37.5" r="2.125"/><circle cx="47.5" cy="37.5" r="2.125"/><circle cx="52.5" cy="37.5" r="2.125"/><circle cx="57.5" cy="37.5" r="2.125"/><circle cx="62.5" cy="37.5" r="2.125"/><circle cx="67.5" cy="37.5" r="2.125"/><circle cx="72.5" cy="37.5" r="2.125"/><circle cx="7.5" cy="42.5" r="2.125"/><circle cx="12.5" cy="42.5" r="2.125"/><circle cx="17.5" cy="42.5" r="2.125"/><circle cx="22.5" cy="42.5" r="2.125"/><circle cx="27.5" cy="42.5" r="2.125"/><circle cx="32.5" cy="42.5" r="2.125"/><circle cx="37.5" cy="42.5" r="2.125"/><circle cx="42.5" cy="42.5" r="2.125"/><circle cx="47.5" cy="42.5" r="2.125"/><circle cx="52.5" cy="42.5" r="2.125"/><circle cx="57.5" cy="42.5" r="2.125"/><circle cx="62.5" cy="42.5" r="2.125"/><circle cx="67.5" cy="42.5" r="2.125"/><circle cx="72.5" cy="42.5" r="2.125"/><circle cx="7.5" cy="47.5" r="2.125"/><circle cx="12.5" cy="47.5" r="2.125"/><circle cx="17.5" cy="47.5" r="2.125"/><circle cx="22.5" cy="47.5" r="2.125"/><circle cx="27.5" cy="47.5" r="2.125"/><circle cx="32.5" cy="47.5" r="2.125"/><circle cx="37.5" cy="47.5" r="2.125"/><circle cx="42.5" cy="47.5" r="2.125"/><circle cx="47.5" cy="47.5" r="2.125"/><circle cx="52.5" cy="47.5" r="2.125"/><circle cx="57.5" cy="47.5" r="2.125"/><circle cx="62.5" cy="47.5" r="2.125"/><circle cx="67.5" cy="47.5" r="2.125"/><circle cx="72.5" cy="47.5" r="2.125"/><circle cx="7.5" cy="52.5" r="2.125"/><circle cx="12.5" cy="52.5" r="2.125"/><circle cx="17.5" cy="52.5" r="2.125"/><circle cx="22.5" cy="52.5" r="2.125"/><circle cx="27.5" cy="52.5" r="2.125"/><circle cx="32.5" cy="52.5" r="2.125"/><circle cx="37.5" cy="52.5" r="2.125"/><circle cx="42.5" cy="52.5" r="2.125"/><circle cx="47.5" cy="52.5" r="2.125"/><circle cx="52.5" cy="52.5" r="2.125"/><circle cx="57.5" cy="52.5" r="2.125"/><circle cx="62.5" cy="52.5" r="2.125"/><circle cx="67.5" cy="52.5" r="2.125"/><circle cx="72.5" cy="52.5" r="2.125"/><circle cx="12.5" cy="57.5" r="2.125"/><circle cx="17.5" cy="57.5" r="2.125"/><circle cx="22.5" cy="57.5" r="2.125"/><circle cx="27.5" cy="57.5" r="2.125"/><circle cx="32.5" cy="57.5" r="2.125"/><circle cx="37.5" cy="57.5" r="2.125"/><circle cx="42.5" cy="57.5" r="2.125"/><circle cx="47.5" cy="57.5" r="2.125"/><circle cx="52.5" cy="57.5" r="2.125"/><circle cx="57.5" cy="57.5" r="2.125"/><circle cx="62.5" cy="57.5" r="2.125"/><circle cx="67.5" cy="57.5" r="2.125"/><circle cx="17.5" cy="62.5" r="2.125"/><circle cx="22.5" cy="62.5" r="2.125"/><circle cx="27.5" cy="62.5" r="2.125"/><circle cx="32.5" cy="62.5" r="2.125"/><circle cx="37.5" cy="62.5" r="2.125"/><circle cx="42.5" cy="62.5" r="2.125"/><circle cx="47.5" cy="62.5" r="2.125"/><circle cx="52.5" cy="62.5" r="2.125"/><circle cx="57.5" cy="62.5" r="2.125"/><circle cx="62.5" cy="62.5" r="2.125"/><circle cx="22.5" cy="67.5" r="2.125"/><circle cx="27.5" cy="67.5" r="2.125"/><circle cx="32.5" cy="67.5" r="2.125"/><circle cx="37.5" cy="67.5" r="2.125"/><circle cx="42.5" cy="67.5" r="2.125"/><circle cx="47.5" cy="67.5" r="2.125"/><circle cx="52.5" cy="67.5" r="2.125"/><circle cx="57.5" cy="67.5" r="2.125"/><circle cx="27.5" cy="72.5" r="2.125"/><circle cx="32.5" cy="72.5" r="2.125"/><circle cx="37.5" cy="72.5" r="2.125"/><circle cx="42.5" cy="72.5" r="2.125"/><circle cx="47.5" cy="72.5" r="2.125"/><circle cx="52.5" cy="72.5" r="2.125"/></g>
<text x="95" text-anchor="middle" y="15" font-family="monospace" font-size="16" fill="#1f2328">1</text>
<text x="105" text-anchor="middle" y="15" font-family="monospace" font-size="16" fill="#1f2328">5</text>
<text x="115" text-anchor="middle" y="15" font-family="monospace" font-size="16" fill="#1f2328">6</text>
<text x="125" text-anchor="middle" y="15" font-family="monospace" font-size="16" fill="#1f2328"> </text>
<text x="135" text-anchor="middle" y="15" font-family="monospace" font-size="16" fill="#1f2328">o</text>
<text x="145" text-anchor="middle" y="15" font-family="monospace" font-size="16" fill="#1f2328">f</text>
<text x="155" text-anchor="middle" y="15" font-family="monospace" font-size="16" fill="#1f2328"> </text>
<text x="165" text-anchor="middle" y="15" font-family="monospace" font-size="16" fill="#1f2328">8</text>
<text x="175" text-anchor="middle" y="15" font-family="monospace" font-size="16" fill="#1f2328">9</text>
<text x="185" text-anchor="middle" y="15" font-family="monospace" font-size="16" fill="#1f2328">6</text>
<text x="195" text-anchor="middle" y="15" font-family="monospace" font-size="16" fill="#1f2328"> </text>
<text x="205" text-anchor="middle" y="15" font-family="monospace" font-size="16" fill="#1f2328">d</text>
<text x="215" text-anchor="middle" y="15" font-family="monospace" font-size="16" fill="#1f2328">o</text>
<text x="225" text-anchor="middle" y="15" font-family="monospace" font-size="16" fill="#1f2328">t</text>
<text x="235" text-anchor="middle" y="15" font-family="monospace" font-size="16" fill="#1f2328">s</text>
<text x="95" text-anchor="middle" y="55" font-family="monospace" font-size="16" fill="#1f2328">c</text>
<text x="105" text-anchor="middle" y="55" font-family="monospace" font-size="16" fill="#1f2328">l</text>
<text x="115" text-anchor="middle" y="55" font-family="monospace" font-size="16" fill="#1f2328">e</text>
<text x="125" text-anchor="middle" y="55" font-family="monospace" font-size="16" fill="#1f2328">a</text>
<text x="135" text-anchor="middle" y="55" font-family="monospace" font-size="16" fill="#1f2328">r</text>
<text x="145" text-anchor="middle" y="55" font-family="monospace" font-size="16" fill="#1f2328">e</text>
<text x="155" text-anchor="middle" y="55" font-family="monospace" font-size="16" fill="#1f2328">d</text>
</svg>
