<svg xmlns="http://www.w3.org/2000/svg" viewBox="0 0 240 80" width="240" height="80">
<rect width="100%" height="100%" fill="#ffffff"/>
<g fill="#39d2bf"><circle cx="217.5" cy="27.5" r="2.125"/><circle cx="217.5" cy="52.5" r="2.125"/></g>
<g fill="#39d2c0"><circle cx="232.5" cy="22.5" r="2.125"/><circle cx="222.5" cy="27.5" r="2.125"/><circle cx="227.5" cy="27.5" r="2.125"/><circle cx="232.5" cy="27.5" r="2.125"/><circle cx="212.5" cy="32.5" r="2.125"/><circle cx="217.5" cy="32.5" r="2.125"/><circle cx="222.5" cy="32.5" r="2.125"/><circle cx="227.5" cy="32.5" r="2.125"/><circle cx="232.5" cy="32.5" r="2.125"/><circle cx="207.5" cy="37.5" r="2.125"/><circle cx="212.5" cy="37.5" r="2.125"/><circle cx="217.5" cy="37.5" r="2.125"/><circle cx="222.5" cy="37.5" r="2.125"/><circle cx="227.5" cy="37.5" r="2.125"/><circle cx="232.5" cy="37.5" r="2.125"/><circle cx="207.5" cy="42.5" r="2.125"/><circle cx="212.5" cy="42.5" r="2.125"/><circle cx="217.5" cy="42.5" r="2.125"/><circle cx="222.5" cy="42.5" r="2.125"/><circle cx="227.5" cy="42.5" r="2.125"/><circle cx="232.5" cy="42.5" r="2.125"/><circle cx="212.5" cy="47.5" r="2.125"/><circle cx="217.5" cy="47.5" r="2.125"/><circle cx="222.5" cy="47.5" r="2.125"/><circle cx="227.5" cy="47.5" r="2.125"/><circle cx="232.5" cy="47.5" r="2.125"/><circle cx="222.5" cy="52.5" r="2.125"/><circle cx="227.5" cy="52.5" r="2.125"/><circle cx="232.5" cy="52.5" r="2.125"/><circle cx="232.5" cy="57.5" r="2.125"/></g>
<g fill="#3ad2bc"><circle cx="222.5" cy="22.5" r="2.125"/><circle cx="222.5" cy="57.5" r="2.125"/></g>
<g fill="#3ad2be"><circle cx="227.5" cy="22.5" r="2.125"/><circle cx="227.5" cy="57.5" r="2.125"/></g>
<g fill="#3cd2b6"><circle cx="227.5" cy="17.5" r="2.125"/><circle cx="227.5" cy="62.5" r="2.125"/></g>
<g fill="#3cd2b8"><circle cx="232.5" cy="17.5" r="2.125"/><circle cx="232.5" cy="62.5" r="2.125"/></g>
<g fill="#3dd2b3"><circle cx="227.5" cy="12.5" r="2.125"/><circle cx="222.5" cy="17.5" r="2.125"/><circle cx="217.5" cy="22.5" r="2.125"/><circle cx="212.5" cy="27.5" r="2.125"/><circle cx="207.5" cy="32.5" r="2.125"/><circle cx="202.5" cy="37.5" r="2.125"/><circle cx="202.5" cy="42.5" r="2.125"/><circle cx="207.5" cy="47.5" r="2.125"/><circle cx="212.5" cy="52.5" r="2.125"/><circle cx="217.5" cy="57.5" r="2.125"/><circle cx="222.5" cy="62.5" r="2.125"/><circle cx="227.5" cy="67.5" r="2.125"/></g>
<g fill="#3ed2af"><circle cx="222.5" cy="12.5" r="2.125"/><circle cx="222.5" cy="67.5" r="2.125"/></g>
<g fill="#3fd2ad"><circle cx="222.5" cy="7.5" r="2.125"/><circle cx="222.5" cy="72.5" r="2.125"/></g>
<g fill="#41d2a6"><circle cx="217.5" cy="17.5" r="2.125"/><circle cx="217.5" cy="62.5" r="2.125"/></g>
<g fill="#43d2a0"><circle cx="217.5" cy="12.5" r="2.125"/><circle cx="217.5" cy="67.5" r="2.125"/></g>
<g fill="#45d29b"><circle cx="212.5" cy="22.5" r="2.125"/><circle cx="212.5" cy="57.5" r="2.125"/></g>
<g fill="#46d296"><circle cx="212.5" cy="17.5" r="2.125"/><circle cx="212.5" cy="62.5" r="2.125"/></g>
<g fill="#48d392"><circle cx="182.5" cy="7.5" r="2.125"/><circle cx="187.5" cy="7.5" r="2.125"/><circle cx="192.5" cy="7.5" r="2.125"/><circle cx="197.5" cy="7.5" r="2.125"/><circle cx="202.5" cy="7.5" r="2.125"/><circle cx="207.5" cy="7.5" r="2.125"/><circle cx="212.5" cy="7.5" r="2.125"/><circle cx="217.5" cy="7.5" r="2.125"/><circle cx="187.5" cy="12.5" r="2.125"/><circle cx="192.5" cy="12.5" r="2.125"/><circle cx="197.5" cy="12.5" r="2.125"/><circle cx="202.5" cy="12.5" r="2.125"/><circle cx="207.5" cy="12.5" r="2.125"/><circle cx="212.5" cy="12.5" r="2.125"/><circle cx="192.5" cy="17.5" r="2.125"/><circle cx="197.5" cy="17.5" r="2.125"/><circle cx="202.5" cy="17.5" r="2.125"/><circle cx="207.5" cy="17.5" r="2.125"/><circle cx="192.5" cy="22.5" r="2.125"/><circle cx="197.5" cy="22.5" r="2.125"/><circle cx="202.5" cy="22.5" r="2.125"/><circle cx="207.5" cy="22.5" r="2.125"/><circle cx="192.5" cy="27.5" r="2.125"/><circle cx="197.5" cy="27.5" r="2.125"/><circle cx="202.5" cy="27.5" r="2.125"/><circle cx="207.5" cy="27.5" r="2.125"/><circle cx="197.5" cy="32.5" r="2.125"/><circle cx="202.5" cy="32.5" r="2.125"/><circle cx="197.5" cy="47.5" r="2.125"/><circle cx="202.5" cy="47.5" r="2.125"/><circle cx="192.5" cy="52.5" r="2.125"/><circle cx="197.5" cy="52.5" r="2.125"/><circle cx="202.5" cy="52.5" r="2.125"/><circle cx="207.5" cy="52.5" r="2.125"/><circle cx="192.5" cy="57.5" r="2.125"/><circle cx="197.5" cy="57.5" r="2.125"/><circle cx="202.5" cy="57.5" r="2.125"/><circle cx="207.5" cy="57.5" r="2.125"/><circle cx="192.5" cy="62.5" r="2.125"/><circle cx="197.5" cy="62.5" r="2.125"/><circle cx="202.5" cy="62.5" r="2.125"/><circle cx="207.5" cy="62.5" r="2.125"/><circle cx="187.5" cy="67.5" r="2.125"/><circle cx="192.5" cy="67.5" r="2.125"/><circle cx="197.5" cy="67.5" r="2.125"/><circle cx="202.5" cy="67.5" r="2.125"/><circle cx="207.5" cy="67.5" r="2.125"/><circle cx="212.5" cy="67.5" r="2.125"/><circle cx="182.5" cy="72.5" r="2.125"/><circle cx="187.5" cy="72.5" r="2.125"/><circle cx="192.5" cy="72.5" r="2.125"/><circle cx="197.5" cy="72.5" r="2.125"/><circle cx="202.5" cy="72.5" r="2.125"/><circle cx="207.5" cy="72.5" r="2.125"/><circle cx="212.5" cy="72.5" r="2.125"/><circle cx="217.5" cy="72.5" r="2.125"/></g>
<g fill="#49d38e"><circle cx="187.5" cy="17.5" r="2.125"/><circle cx="187.5" cy="62.5" r="2.125"/></g>
<g fill="#4ad389"><circle cx="187.5" cy="22.5" r="2.125"/><circle cx="187.5" cy="57.5" r="2.125"/></g>
<g fill="#4cd384"><circle cx="182.5" cy="12.5" r="2.125"/><circle cx="182.5" cy="67.5" r="2.125"/></g>
<g fill="#4ed37e"><circle cx="182.5" cy="17.5" r="2.125"/><circle cx="182.5" cy="62.5" r="2.125"/></g>
<g fill="#50d377"><circle cx="177.5" cy="7.5" r="2.125"/><circle cx="177.5" cy="72.5" r="2.125"/></g>
<g fill="#51d375"><circle cx="177.5" cy="12.5" r="2.125"/><circle cx="177.5" cy="67.5" r="2.125"/></g>
<g fill="#52d371"><circle cx="172.5" cy="12.5" r="2.125"/><circle cx="177.5" cy="17.5" r="2.125"/><circle cx="182.5" cy="22.5" r="2.125"/><circle cx="187.5" cy="27.5" r="2.125"/><circle cx="192.5" cy="32.5" r="2.125"/><circle cx="197.5" cy="37.5" r="2.125"/><circle cx="197.5" cy="42.5" r="2.125"/><circle cx="192.5" cy="47.5" r="2.125"/><circle cx="187.5" cy="52.5" r="2.125"/><circle cx="182.5" cy="57.5" r="2.125"/><circle cx="177.5" cy="62.5" r="2.125"/><circle cx="172.5" cy="67.5" r="2.125"/></g>
<g fill="#53d36c"><circle cx="167.5" cy="17.5" r="2.125"/><circle cx="167.5" cy="62.5" r="2.125"/></g>
<g fill="#53d36e"><circle cx="172.5" cy="17.5" r="2.125"/><circle cx="172.5" cy="62.5" r="2.125"/></g>
<g fill="#55d366"><circle cx="172.5" cy="22.5" r="2.125"/><circle cx="172.5" cy="57.5" r="2.125"/></g>
<g fill="#55d368"><circle cx="177.5" cy="22.5" r="2.125"/><circle cx="177.5" cy="57.5" r="2.125"/></g>
<g fill="#56d364"><circle cx="167.5" cy="22.5" r="2.125"/><circle cx="167.5" cy="27.5" r="2.125"/><circle cx="172.5" cy="27.5" r="2.125"/><circle cx="177.5" cy="27.5" r="2.125"/><circle cx="167.5" cy="32.5" r="2.125"/><circle cx="172.5" cy="32.5" r="2.125"/><circle cx="177.5" cy="32.5" r="2.125"/><circle cx="182.5" cy="32.5" r="2.125"/><circle cx="187.5" cy="32.5" r="2.125"/><circle cx="167.5" cy="37.5" r="2.125"/><circle cx="172.5" cy="37.5" r="2.125"/><circle cx="177.5" cy="37.5" r="2.125"/><circle cx="182.5" cy="37.5" r="2.125"/><circle cx="187.5" cy="37.5" r="2.125"/><circle cx="192.5" cy="37.5" r="2.125"/><circle cx="167.5" cy="42.5" r="2.125"/><circle cx="172.5" cy="42.5" r="2.125"/><circle cx="177.5" cy="42.5" r="2.125"/><circle cx="182.5" cy="42.5" r="2.125"/><circle cx="187.5" cy="42.5" r="2.125"/><circle cx="192.5" cy="42.5" r="2.125"/><circle cx="167.5" cy="47.5" r="2.125"/><circle cx="172.5" cy="47.5" r="2.125"/><circle cx="177.5" cy="47.5" r="2.125"/><circle cx="182.5" cy="47.5" r="2.125"/><circle cx="187.5" cy="47.5" r="2.125"/><circle cx="167.5" cy="52.5" r="2.125"/><circle cx="172.5" cy="52.5" r="2.125"/><circle cx="177.5" cy="52.5" r="2.125"/><circle cx="167.5" cy="57.5" r="2.125"/></g>
<g fill="#56d365"><circle cx="182.5" cy="27.5" r="2.125"/><circle cx="182.5" cy="52.5" r="2.125"/></g>
<g fill="#64a1f6"><circle cx="17.5" cy="72.5" r="2.125"/><circle cx="22.5" cy="72.5" r="2.125"/><circle cx="27.5" cy="72.5" r="2.125"/><circle cx="32.5" cy="72.5" r="2.125"/><circle cx="37.5" cy="72.5" r="2.125"/><circle cx="42.5" cy="72.5" r="2.125"/><circle cx="47.5" cy="72.5" r="2.125"/><circle cx="52.5" cy="72.5" r="2.125"/><circle cx="57.5" cy="72.5" r="2.125"/><circle cx="62.5" cy="72.5" r="2.125"/></g>
<g fill="#709bec"><circle cx="12.5" cy="67.5" r="2.125"/><circle cx="17.5" cy="67.5" r="2.125"/><circle cx="22.5" cy="67.5" r="2.125"/><circle cx="27.5" cy="67.5" r="2.125"/><circle cx="32.5" cy="67.5" r="2.125"/><circle cx="37.5" cy="67.5" r="2.125"/><circle cx="42.5" cy="67.5" r="2.125"/><circle cx="47.5" cy="67.5" r="2.125"/><circle cx="52.5" cy="67.5" r="2.125"/><circle cx="57.5" cy="67.5" r="2.125"/><circle cx="62.5" cy="67.5" r="2.125"/><circle cx="67.5" cy="67.5" r="2.125"/></g>
<g fill="#7c96e3"><circle cx="7.5" cy="62.5" r="2.125"/><circle cx="12.5" cy="62.5" r="2.125"/><circle cx="17.5" cy="62.5" r="2.125"/><circle cx="22.5" cy="62.5" r="2.125"/><circle cx="27.5" cy="62.5" r="2.125"/><circle cx="32.5" cy="62.5" r="2.125"/><circle cx="37.5" cy="62.5" r="2.125"/><circle cx="42.5" cy="62.5" r="2.125"/><circle cx="47.5" cy="62.5" r="2.125"/><circle cx="52.5" cy="62.5" r="2.125"/><circle cx="57.5" cy="62.5" r="2.125"/><circle cx="62.5" cy="62.5" r="2.125"/><circle cx="67.5" cy="62.5" r="2.125"/><circle cx="72.5" cy="62.5" r="2.125"/></g>
<g fill="#8891d9"><circle cx="7.5" cy="57.5" r="2.125"/><circle cx="12.5" cy="57.5" r="2.125"/><circle cx="17.5" cy="57.5" r="2.125"/><circle cx="22.5" cy="57.5" r="2.125"/><circle cx="27.5" cy="57.5" r="2.125"/><circle cx="32.5" cy="57.5" r="2.125"/><circle cx="37.5" cy="57.5" r="2.125"/><circle cx="42.5" cy="57.5" r="2.125"/><circle cx="47.5" cy="57.5" r="2.125"/><circle cx="52.5" cy="57.5" r="2.125"/><circle cx="57.5" cy="57.5" r="2.125"/><circle cx="62.5" cy="57.5" r="2.125"/><circle cx="67.5" cy="57.5" r="2.125"/><circle cx="72.5" cy="57.5" r="2.125"/></g>
<g fill="#948cd0"><circle cx="7.5" cy="52.5" r="2.125"/><circle cx="12.5" cy="52.5" r="2.125"/><circle cx="17.5" cy="52.5" r="2.125"/><circle cx="22.5" cy="52.5" r="2.125"/><circle cx="27.5" cy="52.5" r="2.125"/><circle cx="32.5" cy="52.5" r="2.125"/><circle cx="37.5" cy="52.5" r="2.125"/><circle cx="42.5" cy="52.5" r="2.125"/><circle cx="47.5" cy="52.5" r="2.125"/><circle cx="52.5" cy="52.5" r="2.125"/><circle cx="57.5" cy="52.5" r="2.125"/><circle cx="62.5" cy="52.5" r="2.125"/><circle cx="67.5" cy="52.5" r="2.125"/><circle cx="72.5" cy="52.5" r="2.125"/></g>
<g fill="#a086c6"><circle cx="7.5" cy="47.5" r="2.125"/><circle cx="12.5" cy="47.5" r="2.125"/><circle cx="17.5" cy="47.5" r="2.125"/><circle cx="22.5" cy="47.5" r="2.125"/><circle cx="27.5" cy="47.5" r="2.125"/><circle cx="32.5" cy="47.5" r="2.125"/><circle cx="37.5" cy="47.5" r="2.125"/><circle cx="42.5" cy="47.5" r="2.125"/><circle cx="47.5" cy="47.5" r="2.125"/><circle cx="52.5" cy="47.5" r="2.125"/><circle cx="57.5" cy="47.5" r="2.125"/><circle cx="62.5" cy="47.5" r="2.125"/><circle cx="67.5" cy="47.5" r="2.125"/><circle cx="72.5" cy="47.5" r="2.125"/></g>
<g fill="#ac81bd"><circle cx="7.5" cy="42.5" r="2.125"/><circle cx="12.5" cy="42.5" r="2.125"/><circle cx="17.5" cy="42.5" r="2.125"/><circle cx="22.5" cy="42.5" r="2.125"/><circle cx="27.5" cy="42.5" r="2.125"/><circle cx="32.5" cy="42.5" r="2.125"/><circle cx="37.5" cy="42.5" r="2.125"/><circle cx="42.5" cy="42.5" r="2.125"/><circle cx="47.5" cy="42.5" r="2.125"/><circle cx="52.5" cy="42.5" r="2.125"/><circle cx="57.5" cy="42.5" r="2.125"/><circle cx="62.5" cy="42.5" r="2.125"/><circle cx="67.5" cy="42.5" r="2.125"/><circle cx="72.5" cy="42.5" r="2.125"/></g>
<g fill="#b77cb3"><circle cx="7.5" cy="37.5" r="2.125"/><circle cx="12.5" cy="37.5" r="2.125"/><circle cx="17.5" cy="37.5" r="2.125"/><circle cx="22.5" cy="37.5" r="2.125"/><circle cx="27.5" cy="37.5" r="2.125"/><circle cx="32.5" cy="37.5" r="2.125"/><circle cx="37.5" cy="37.5" r="2.125"/><circle cx="42.5" cy="37.5" r="2.125"/><circle cx="47.5" cy="37.5" r="2.125"/><circle cx="52.5" cy="37.5" r="2.125"/><circle cx="57.5" cy="37.5" r="2.125"/><circle cx="62.5" cy="37.5" r="2.125"/><circle cx="67.5" cy="37.5" r="2.125"/><circle cx="72.5" cy="37.5" r="2.125"/></g>
<g fill="#bc8cff"><circle cx="112.5" cy="32.5" r="2.125"/><circle cx="117.5" cy="32.5" r="2.125"/><circle cx="122.5" cy="32.5" r="2.125"/><circle cx="127.5" cy="32.5" r="2.125"/><circle cx="112.5" cy="37.5" r="2.125"/><circle cx="117.5" cy="37.5" r="2.125"/><circle cx="122.5" cy="37.5" r="2.125"/><circle cx="127.5" cy="37.5" r="2.125"/><circle cx="112.5" cy="42.5" r="2.125"/><circle cx="117.5" cy="42.5" r="2.125"/><circle cx="122.5" cy="42.5" r="2.125"/><circle cx="127.5" cy="42.5" r="2.125"/><circle cx="112.5" cy="47.5" r="2.125"/><circle cx="117.5" cy="47.5" r="2.125"/><circle cx="122.5" cy="47.5" r="2.125"/><circle cx="127.5" cy="47.5" r="2.125"/></g>
<g fill="#c376aa"><circle cx="7.5" cy="32.5" r="2.125"/><circle cx="12.5" cy="32.5" r="2.125"/><circle cx="17.5" cy="32.5" r="2.125"/><circle cx="22.5" cy="32.5" r="2.125"/><circle cx="27.5" cy="32.5" r="2.125"/><circle cx="32.5" cy="32.5" r="2.125"/><circle cx="37.5" cy="32.5" r="2.125"/><circle cx="42.5" cy="32.5" r="2.125"/><circle cx="47.5" cy="32.5" r="2.125"/><circle cx="52.5" cy="32.5" r="2.125"/><circle cx="57.5" cy="32.5" r="2.125"/><circle cx="62.5" cy="32.5" r="2.125"/><circle cx="67.5" cy="32.5" r="2.125"/><circle cx="72.5" cy="32.5" r="2.125"/></g>
<g fill="#c597e5"><circle cx="107.5" cy="27.5" r="2.125"/><circle cx="112.5" cy="27.5" r="2.125"/><circle cx="117.5" cy="27.5" r="2.125"/><circle cx="122.5" cy="27.5" r="2.125"/><circle cx="127.5" cy="27.5" r="2.125"/><circle cx="132.5" cy="27.5" r="2.125"/><circle cx="107.5" cy="32.5" r="2.125"/><circle cx="132.5" cy="32.5" r="2.125"/><circle cx="107.5" cy="37.5" r="2.125"/><circle cx="132.5" cy="37.5" r="2.125"/><circle cx="107.5" cy="42.5" r="2.125"/><circle cx="132.5" cy="42.5" r="2.125"/><circle cx="107.5" cy="47.5" r="2.125"/><circle cx="132.5" cy="47.5" r="2.125"/><circle cx="107.5" cy="52.5" r="2.125"/><circle cx="112.5" cy="52.5" r="2.125"/><circle cx="117.5" cy="52.5" r="2.125"/><circle cx="122.5" cy="52.5" r="2.125"/><circle cx="127.5" cy="52.5" r="2.125"/><circle cx="132.5" cy="52.5" r="2.125"/></g>
<g fill="#cea1ca"><circle cx="107.5" cy="22.5" r="2.125"/><circle cx="112.5" cy="22.5" r="2.125"/><circle cx="117.5" cy="22.5" r="2.125"/><circle cx="122.5" cy="22.5" r="2.125"/><circle cx="127.5" cy="22.5" r="2.125"/><circle cx="132.5" cy="22.5" r="2.125"/><circle cx="102.5" cy="27.5" r="2.125"/><circle cx="137.5" cy="27.5" r="2.125"/><circle cx="102.5" cy="32.5" r="2.125"/><circle cx="137.5" cy="32.5" r="2.125"/><circle cx="102.5" cy="37.5" r="2.125"/><circle cx="137.5" cy="37.5" r="2.125"/><circle cx="102.5" cy="42.5" r="2.125"/><circle cx="137.5" cy="42.5" r="2.125"/><circle cx="102.5" cy="47.5" r="2.125"/><circle cx="137.5" cy="47.5" r="2.125"/><circle cx="102.5" cy="52.5" r="2.125"/><circle cx="137.5" cy="52.5" r="2.125"/><circle cx="107.5" cy="57.5" r="2.125"/><circle cx="112.5" cy="57.5" r="2.125"/><circle cx="117.5" cy="57.5" r="2.125"/><circle cx="122.5" cy="57.5" r="2.125"/><circle cx="127.5" cy="57.5" r="2.125"/><circle cx="132.5" cy="57.5" r="2.125"/></g>
<g fill="#cf71a0"><circle cx="7.5" cy="27.5" r="2.125"/><circle cx="12.5" cy="27.5" r="2.125"/><circle cx="17.5" cy="27.5" r="2.125"/><circle cx="22.5" cy="27.5" r="2.125"/><circle cx="27.5" cy="27.5" r="2.125"/><circle cx="32.5" cy="27.5" r="2.125"/><circle cx="37.5" cy="27.5" r="2.125"/><circle cx="42.5" cy="27.5" r="2.125"/><circle cx="47.5" cy="27.5" r="2.125"/><circle cx="52.5" cy="27.5" r="2.125"/><circle cx="57.5" cy="27.5" r="2.125"/><circle cx="62.5" cy="27.5" r="2.125"/><circle cx="67.5" cy="27.5" r="2.125"/><circle cx="72.5" cy="27.5" r="2.125"/></g>
<g fill="#d2a6c0"><circle cx="102.5" cy="22.5" r="2.125"/><circle cx="137.5" cy="22.5" r="2.125"/><circle cx="102.5" cy="57.5" r="2.125"/><circle cx="137.5" cy="57.5" r="2.125"/></g>
<g fill="#d7acb0"><circle cx="107.5" cy="17.5" r="2.125"/><circle cx="112.5" cy="17.5" r="2.125"/><circle cx="117.5" cy="17.5" r="2.125"/><circle cx="122.5" cy="17.5" r="2.125"/><circle cx="127.5" cy="17.5" r="2.125"/><circle cx="132.5" cy="17.5" r="2.125"/><circle cx="97.5" cy="27.5" r="2.125"/><circle cx="142.5" cy="27.5" r="2.125"/><circle cx="97.5" cy="32.5" r="2.125"/><circle cx="142.5" cy="32.5" r="2.125"/><circle cx="97.5" cy="37.5" r="2.125"/><circle cx="142.5" cy="37.5" r="2.125"/><circle cx="97.5" cy="42.5" r="2.125"/><circle cx="142.5" cy="42.5" r="2.125"/><circle cx="97.5" cy="47.5" r="2.125"/><circle cx="142.5" cy="47.5" r="2.125"/><circle cx="97.5" cy="52.5" r="2.125"/><circle cx="142.5" cy="52.5" r="2.125"/><circle cx="107.5" cy="62.5" r="2.125"/><circle cx="112.5" cy="62.5" r="2.125"/><circle cx="117.5" cy="62.5" r="2.125"/><circle cx="122.5" cy="62.5" r="2.125"/><circle cx="127.5" cy="62.5" r="2.125"/><circle cx="132.5" cy="62.5" r="2.125"/></g>
<g fill="#d9aeab"><circle cx="102.5" cy="17.5" r="2.125"/><circle cx="137.5" cy="17.5" r="2.125"/><circle cx="97.5" cy="22.5" r="2.125"/><circle cx="142.5" cy="22.5" r="2.125"/><circle cx="97.5" cy="57.5" r="2.125"/><circle cx="142.5" cy="57.5" r="2.125"/><circle cx="102.5" cy="62.5" r="2.125"/><circle cx="137.5" cy="62.5" r="2.125"/></g>
<g fill="#db6c97"><circle cx="7.5" cy="22.5" r="2.125"/><circle cx="12.5" cy="22.5" r="2.125"/><circle cx="17.5" cy="22.5" r="2.125"/><circle cx="22.5" cy="22.5" r="2.125"/><circle cx="27.5" cy="22.5" r="2.125"/><circle cx="32.5" cy="22.5" r="2.125"/><circle cx="37.5" cy="22.5" r="2.125"/><circle cx="42.5" cy="22.5" r="2.125"/><circle cx="47.5" cy="22.5" r="2.125"/><circle cx="52.5" cy="22.5" r="2.125"/><circle cx="57.5" cy="22.5" r="2.125"/><circle cx="62.5" cy="22.5" r="2.125"/><circle cx="67.5" cy="22.5" r="2.125"/><circle cx="72.5" cy="22.5" r="2.125"/></g>
<g fill="#deb49b"><circle cx="97.5" cy="17.5" r="2.125"/><circle cx="142.5" cy="17.5" r="2.125"/><circle cx="97.5" cy="62.5" r="2.125"/><circle cx="142.5" cy="62.5" r="2.125"/></g>
<g fill="#e0b795"><circle cx="102.5" cy="12.5" r="2.125"/><circle cx="107.5" cy="12.5" r="2.125"/><circle cx="112.5" cy="12.5" r="2.125"/><circle cx="117.5" cy="12.5" r="2.125"/><circle cx="122.5" cy="12.5" r="2.125"/><circle cx="127.5" cy="12.5" r="2.125"/><circle cx="132.5" cy="12.5" r="2.125"/><circle cx="137.5" cy="12.5" r="2.125"/><circle cx="92.5" cy="22.5" r="2.125"/><circle cx="147.5" cy="22.5" r="2.125"/><circle cx="92.5" cy="27.5" r="2.125"/><circle cx="147.5" cy="27.5" r="2.125"/><circle cx="92.5" cy="32.5" r="2.125"/><circle cx="147.5" cy="32.5" r="2.125"/><circle cx="92.5" cy="37.5" r="2.125"/><circle cx="147.5" cy="37.5" r="2.125"/><circle cx="92.5" cy="42.5" r="2.125"/><circle cx="147.5" cy="42.5" r="2.125"/><circle cx="92.5" cy="47.5" r="2.125"/><circle cx="147.5" cy="47.5" r="2.125"/><circle cx="92.5" cy="52.5" r="2.125"/><circle cx="147.5" cy="52.5" r="2.125"/><circle cx="92.5" cy="57.5" r="2.125"/><circle cx="147.5" cy="57.5" r="2.125"/><circle cx="102.5" cy="67.5" r="2.125"/><circle cx="107.5" cy="67.5" r="2.125"/><circle cx="112.5" cy="67.5" r="2.125"/><circle cx="117.5" cy="67.5" r="2.125"/><circle cx="122.5" cy="67.5" r="2.125"/><circle cx="127.5" cy="67.5" r="2.125"/><circle cx="132.5" cy="67.5" r="2.125"/><circle cx="137.5" cy="67.5" r="2.125"/></g>
<g fill="#e5bd85"><circle cx="97.5" cy="12.5" r="2.125"/><circle cx="142.5" cy="12.5" r="2.125"/><circle cx="92.5" cy="17.5" r="2.125"/><circle cx="147.5" cy="17.5" r="2.125"/><circle cx="92.5" cy="62.5" r="2.125"/><circle cx="147.5" cy="62.5" r="2.125"/><circle cx="97.5" cy="67.5" r="2.125"/><circle cx="142.5" cy="67.5" r="2.125"/></g>
<g fill="#e7678d"><circle cx="7.5" cy="17.5" r="2.125"/><circle cx="12.5" cy="17.5" r="2.125"/><circle cx="17.5" cy="17.5" r="2.125"/><circle cx="22.5" cy="17.5" r="2.125"/><circle cx="27.5" cy="17.5" r="2.125"/><circle cx="32.5" cy="17.5" r="2.125"/><circle cx="37.5" cy="17.5" r="2.125"/><circle cx="42.5" cy="17.5" r="2.125"/><circle cx="47.5" cy="17.5" r="2.125"/><circle cx="52.5" cy="17.5" r="2.125"/><circle cx="57.5" cy="17.5" r="2.125"/><circle cx="62.5" cy="17.5" r="2.125"/><circle cx="67.5" cy="17.5" r="2.125"/><circle cx="72.5" cy="17.5" r="2.125"/></g>
<g fill="#e9c17b"><circle cx="97.5" cy="7.5" r="2.125"/><circle cx="102.5" cy="7.5" r="2.125"/><circle cx="107.5" cy="7.5" r="2.125"/><circle cx="112.5" cy="7.5" r="2.125"/><circle cx="117.5" cy="7.5" r="2.125"/><circle cx="122.5" cy="7.5" r="2.125"/><circle cx="127.5" cy="7.5" r="2.125"/><circle cx="132.5" cy="7.5" r="2.125"/><circle cx="137.5" cy="7.5" r="2.125"/><circle cx="142.5" cy="7.5" r="2.125"/><circle cx="92.5" cy="12.5" r="2.125"/><circle cx="147.5" cy="12.5" r="2.125"/><circle cx="87.5" cy="17.5" r="2.125"/><circle cx="152.5" cy="17.5" r="2.125"/><circle cx="87.5" cy="22.5" r="2.125"/><circle cx="152.5" cy="22.5" r="2.125"/><circle cx="87.5" cy="27.5" r="2.125"/><circle cx="152.5" cy="27.5" r="2.125"/><circle cx="87.5" cy="32.5" r="2.125"/><circle cx="152.5" cy="32.5" r="2.125"/><circle cx="87.5" cy="37.5" r="2.125"/><circle cx="152.5" cy="37.5" r="2.125"/><circle cx="87.5" cy="42.5" r="2.125"/><circle cx="152.5" cy="42.5" r="2.125"/><circle cx="87.5" cy="47.5" r="2.125"/><circle cx="152.5" cy="47.5" r="2.125"/><circle cx="87.5" cy="52.5" r="2.125"/><circle cx="152.5" cy="52.5" r="2.125"/><circle cx="87.5" cy="57.5" r="2.125"/><circle cx="152.5" cy="57.5" r="2.125"/><circle cx="87.5" cy="62.5" r="2.125"/><circle cx="152.5" cy="62.5" r="2.125"/><circle cx="92.5" cy="67.5" r="2.125"/><circle cx="147.5" cy="67.5" r="2.125"/><circle cx="97.5" cy="72.5" r="2.125"/><circle cx="102.5" cy="72.5" r="2.125"/><circle cx="107.5" cy="72.5" r="2.125"/><circle cx="112.5" cy="72.5" r="2.125"/><circle cx="117.5" cy="72.5" r="2.125"/><circle cx="122.5" cy="72.5" r="2.125"/><circle cx="127.5" cy="72.5" r="2.125"/><circle cx="132.5" cy="72.5" r="2.125"/><circle cx="137.5" cy="72.5" r="2.125"/><circle cx="142.5" cy="72.5" r="2.125"/></g>
<g fill="#f36184"><circle cx="12.5" cy="12.5" r="2.125"/><circle cx="17.5" cy="12.5" r="2.125"/><circle cx="22.5" cy="12.5" r="2.125"/><circle cx="27.5" cy="12.5" r="2.125"/><circle cx="32.5" cy="12.5" r="2.125"/><circle cx="37.5" cy="12.5" r="2.125"/><circle cx="42.5" cy="12.5" r="2.125"/><circle cx="47.5" cy="12.5" r="2.125"/><circle cx="52.5" cy="12.5" r="2.125"/><circle cx="57.5" cy="12.5" r="2.125"/><circle cx="62.5" cy="12.5" r="2.125"/><circle cx="67.5" cy="12.5" r="2.125"/></g>
<g fill="#ff5c7a"><circle cx="17.5" cy="7.5" r="2.125"/><circle cx="22.5" cy="7.5" r="2.125"/><circle cx="27.5" cy="7.5" r="2.125"/><circle cx="32.5" cy="7.5" r="2.125"/><circle cx="37.5" cy="7.5" r="2.125"/><circle cx="42.5" cy="7.5" r="2.125"/><circle cx="47.5" cy="7.5" r="2.125"/><circle cx="52.5" cy="7.5" r="2.125"/><circle cx="57.5" cy="7.5" r="2.125"/><circle cx="62.5" cy="7.5" r="2.125"/></g>
</svg>
