<svg xmlns="http://www.w3.org/2000/svg" viewBox="0 0 300 80" width="300" height="80">
<rect width="100%" height="100%" fill="#ffffff"/>
<g fill="#1f2328"><circle cx="67.5" cy="27.5" r="2.125"/><circle cx="72.5" cy="27.5" r="2.125"/><circle cx="107.5" cy="27.5" r="2.125"/><circle cx="177.5" cy="27.5" r="2.125"/><circle cx="182.5" cy="27.5" r="2.125"/><circle cx="217.5" cy="27.5" r="2.125"/><circle cx="222.5" cy="27.5" r="2.125"/><circle cx="227.5" cy="27.5" r="2.125"/><circle cx="237.5" cy="27.5" r="2.125"/><circle cx="247.5" cy="27.5" r="2.125"/><circle cx="262.5" cy="27.5" r="2.125"/><circle cx="277.5" cy="27.5" r="2.125"/><circle cx="282.5" cy="27.5" r="2.125"/><circle cx="287.5" cy="27.5" r="2.125"/><circle cx="27.5" cy="32.5" r="2.125"/><circle cx="32.5" cy="32.5" r="2.125"/><circle cx="42.5" cy="32.5" r="2.125"/><circle cx="52.5" cy="32.5" r="2.125"/><circle cx="62.5" cy="32.5" r="2.125"/><circle cx="72.5" cy="32.5" r="2.125"/><circle cx="107.5" cy="32.5" r="2.125"/><circle cx="132.5" cy="32.5" r="2.125"/><circle cx="137.5" cy="32.5" r="2.125"/><circle cx="152.5" cy="32.5" r="2.125"/><circle cx="157.5" cy="32.5" r="2.125"/><circle cx="172.5" cy="32.5" r="2.125"/><circle cx="182.5" cy="32.5" r="2.125"/><circle cx="192.5" cy="32.5" r="2.125"/><circle cx="217.5" cy="32.5" r="2.125"/><circle cx="237.5" cy="32.5" r="2.125"/><circle cx="247.5" cy="32.5" r="2.125"/><circle cx="257.5" cy="32.5" r="2.125"/><circle cx="262.5" cy="32.5" r="2.125"/><circle cx="277.5" cy="32.5" r="2.125"/><circle cx="287.5" cy="32.5" r="2.125"/><circle cx="22.5" cy="37.5" r="2.125"/><circle cx="27.5" cy="37.5" r="2.125"/><circle cx="42.5" cy="37.5" r="2.125"/><circle cx="52.5" cy="37.5" r="2.125"/><circle cx="67.5" cy="37.5" r="2.125"/><circle cx="72.5" cy="37.5" r="2.125"/><circle cx="102.5" cy="37.5" r="2.125"/><circle cx="132.5" cy="37.5" r="2.125"/><circle cx="142.5" cy="37.5" r="2.125"/><circle cx="152.5" cy="37.5" r="2.125"/><circle cx="162.5" cy="37.5" r="2.125"/><circle cx="177.5" cy="37.5" r="2.125"/><circle cx="182.5" cy="37.5" r="2.125"/><circle cx="217.5" cy="37.5" r="2.125"/><circle cx="222.5" cy="37.5" r="2.125"/><circle cx="227.5" cy="37.5" r="2.125"/><circle cx="237.5" cy="37.5" r="2.125"/><circle cx="242.5" cy="37.5" r="2.125"/><circle cx="247.5" cy="37.5" r="2.125"/><circle cx="262.5" cy="37.5" r="2.125"/><circle cx="277.5" cy="37.5" r="2.125"/><circle cx="287.5" cy="37.5" r="2.125"/><circle cx="32.5" cy="42.5" r="2.125"/><circle cx="42.5" cy="42.5" r="2.125"/><circle cx="52.5" cy="42.5" r="2.125"/><circle cx="72.5" cy="42.5" r="2.125"/><circle cx="97.5" cy="42.5" r="2.125"/><circle cx="132.5" cy="42.5" r="2.125"/><circle cx="137.5" cy="42.5" r="2.125"/><circle cx="152.5" cy="42.5" r="2.125"/><circle cx="162.5" cy="42.5" r="2.125"/><circle cx="182.5" cy="42.5" r="2.125"/><circle cx="192.5" cy="42.5" r="2.125"/><circle cx="227.5" cy="42.5" r="2.125"/><circle cx="247.5" cy="42.5" r="2.125"/><circle cx="262.5" cy="42.5" r="2.125"/><circle cx="277.5" cy="42.5" r="2.125"/><circle cx="287.5" cy="42.5" r="2.125"/><circle cx="22.5" cy="47.5" r="2.125"/><circle cx="27.5" cy="47.5" r="2.125"/><circle cx="47.5" cy="47.5" r="2.125"/><circle cx="62.5" cy="47.5" r="2.125"/><circle cx="67.5" cy="47.5" r="2.125"/><circle cx="97.5" cy="47.5" r="2.125"/><circle cx="132.5" cy="47.5" r="2.125"/><circle cx="152.5" cy="47.5" r="2.125"/><circle cx="162.5" cy="47.5" r="2.125"/><circle cx="172.5" cy="47.5" r="2.125"/><circle cx="177.5" cy="47.5" r="2.125"/><circle cx="217.5" cy="47.5" r="2.125"/><circle cx="222.5" cy="47.5" r="2.125"/><circle cx="227.5" cy="47.5" r="2.125"/><circle cx="247.5" cy="47.5" r="2.125"/><circle cx="257.5" cy="47.5" r="2.125"/><circle cx="262.5" cy="47.5" r="2.125"/><circle cx="267.5" cy="47.5" r="2.125"/><circle cx="277.5" cy="47.5" r="2.125"/><circle cx="282.5" cy="47.5" r="2.125"/><circle cx="287.5" cy="47.5" r="2.125"/></g>
<g fill="#58a6ff"><circle cx="17.5" cy="7.5" r="2.125"/><circle cx="22.5" cy="7.5" r="2.125"/><circle cx="27.5" cy="7.5" r="2.125"/><circle cx="32.5" cy="7.5" r="2.125"/><circle cx="37.5" cy="7.5" r="2.125"/><circle cx="42.5" cy="7.5" r="2.125"/><circle cx="47.5" cy="7.5" r="2.125"/><circle cx="52.5" cy="7.5" r="2.125"/><circle cx="57.5" cy="7.5" r="2.125"/><circle cx="62.5" cy="7.5" r="2.125"/><circle cx="67.5" cy="7.5" r="2.125"/><circle cx="72.5" cy="7.5" r="2.125"/><circle cx="77.5" cy="7.5" r="2.125"/><circle cx="82.5" cy="7.5" r="2.125"/><circle cx="87.5" cy="7.5" r="2.125"/><circle cx="92.5" cy="7.5" r="2.125"/><circle cx="97.5" cy="7.5" r="2.125"/><circle cx="102.5" cy="7.5" r="2.125"/><circle cx="107.5" cy="7.5" r="2.125"/><circle cx="112.5" cy="7.5" r="2.125"/><circle cx="117.5" cy="7.5" r="2.125"/><circle cx="122.5" cy="7.5" r="2.125"/><circle cx="127.5" cy="7.5" r="2.125"/><circle cx="132.5" cy="7.5" r="2.125"/><circle cx="137.5" cy="7.5" r="2.125"/><circle cx="142.5" cy="7.5" r="2.125"/><circle cx="147.5" cy="7.5" r="2.125"/><circle cx="152.5" cy="7.5" r="2.125"/><circle cx="157.5" cy="7.5" r="2.125"/><circle cx="162.5" cy="7.5" r="2.125"/><circle cx="167.5" cy="7.5" r="2.125"/><circle cx="172.5" cy="7.5" r="2.125"/><circle cx="177.5" cy="7.5" r="2.125"/><circle cx="182.5" cy="7.5" r="2.125"/><circle cx="187.5" cy="7.5" r="2.125"/><circle cx="192.5" cy="7.5" r="2.125"/><circle cx="197.5" cy="7.5" r="2.125"/><circle cx="202.5" cy="7.5" r="2.125"/><circle cx="207.5" cy="7.5" r="2.125"/><circle cx="212.5" cy="7.5" r="2.125"/><circle cx="217.5" cy="7.5" r="2.125"/><circle cx="222.5" cy="7.5" r="2.125"/><circle cx="227.5" cy="7.5" r="2.125"/><circle cx="232.5" cy="7.5" r="2.125"/><circle cx="237.5" cy="7.5" r="2.125"/><circle cx="242.5" cy="7.5" r="2.125"/><circle cx="247.5" cy="7.5" r="2.125"/><circle cx="252.5" cy="7.5" r="2.125"/><circle cx="257.5" cy="7.5" r="2.125"/><circle cx="262.5" cy="7.5" r="2.125"/><circle cx="267.5" cy="7.5" r="2.125"/><circle cx="272.5" cy="7.5" r="2.125"/><circle cx="277.5" cy="7.5" r="2.125"/><circle cx="282.5" cy="7.5" r="2.125"/><circle cx="12.5" cy="12.5" r="2.125"/><circle cx="287.5" cy="12.5" r="2.125"/><circle cx="7.5" cy="17.5" r="2.125"/><circle cx="292.5" cy="17.5" r="2.125"/><circle cx="7.5" cy="22.5" r="2.125"/><circle cx="292.5" cy="22.5" r="2.125"/><circle cx="7.5" cy="27.5" r="2.125"/><circle cx="292.5" cy="27.5" r="2.125"/><circle cx="7.5" cy="32.5" r="2.125"/><circle cx="292.5" cy="32.5" r="2.125"/><circle cx="7.5" cy="37.5" r="2.125"/><circle cx="292.5" cy="37.5" r="2.125"/><circle cx="7.5" cy="42.5" r="2.125"/><circle cx="292.5" cy="42.5" r="2.125"/><circle cx="7.5" cy="47.5" r="2.125"/><circle cx="292.5" cy="47.5" r="2.125"/><circle cx="7.5" cy="52.5" r="2.125"/><circle cx="292.5" cy="52.5" r="2.125"/><circle cx="7.5" cy="57.5" r="2.125"/><circle cx="292.5" cy="57.5" r="2.125"/><circle cx="7.5" cy="62.5" r="2.125"/><circle cx="292.5" cy="62.5" r="2.125"/><circle cx="12.5" cy="67.5" r="2.125"/><circle cx="287.5" cy="67.5" r="2.125"/><circle cx="17.5" cy="72.5" r="2.125"/><circle cx="22.5" cy="72.5" r="2.125"/><circle cx="27.5" cy="72.5" r="2.125"/><circle cx="32.5" cy="72.5" r="2.125"/><circle cx="37.5" cy="72.5" r="2.125"/><circle cx="42.5" cy="72.5" r="2.125"/><circle cx="47.5" cy="72.5" r="2.125"/><circle cx="52.5" cy="72.5" r="2.125"/><circle cx="57.5" cy="72.5" r="2.125"/><circle cx="62.5" cy="72.5" r="2.125"/><circle cx="67.5" cy="72.5" r="2.125"/><circle cx="72.5" cy="72.5" r="2.125"/><circle cx="77.5" cy="72.5" r="2.125"/><circle cx="82.5" cy="72.5" r="2.125"/><circle cx="87.5" cy="72.5" r="2.125"/><circle cx="92.5" cy="72.5" r="2.125"/><circle cx="97.5" cy="72.5" r="2.125"/><circle cx="102.5" cy="72.5" r="2.125"/><circle cx="107.5" cy="72.5" r="2.125"/><circle cx="112.5" cy="72.5" r="2.125"/><circle cx="117.5" cy="72.5" r="2.125"/><circle cx="122.5" cy="72.5" r="2.125"/><circle cx="127.5" cy="72.5" r="2.125"/><circle cx="132.5" cy="72.5" r="2.125"/><circle cx="137.5" cy="72.5" r="2.125"/><circle cx="142.5" cy="72.5" r="2.125"/><circle cx="147.5" cy="72.5" r="2.125"/><circle cx="152.5" cy="72.5" r="2.125"/><circle cx="157.5" cy="72.5" r="2.125"/><circle cx="162.5" cy="72.5" r="2.125"/><circle cx="167.5" cy="72.5" r="2.125"/><circle cx="172.5" cy="72.5" r="2.125"/><circle cx="177.5" cy="72.5" r="2.125"/><circle cx="182.5" cy="72.5" r="2.125"/><circle cx="187.5" cy="72.5" r="2.125"/><circle cx="192.5" cy="72.5" r="2.125"/><circle cx="197.5" cy="72.5" r="2.125"/><circle cx="202.5" cy="72.5" r="2.125"/><circle cx="207.5" cy="72.5" r="2.125"/><circle cx="212.5" cy="72.5" r="2.125"/><circle cx="217.5" cy="72.5" r="2.125"/><circle cx="222.5" cy="72.5" r="2.125"/><circle cx="227.5" cy="72.5" r="2.125"/><circle cx="232.5" cy="72.5" r="2.125"/><circle cx="237.5" cy="72.5" r="2.125"/><circle cx="242.5" cy="72.5" r="2.125"/><circle cx="247.5" cy="72.5" r="2.125"/><circle cx="252.5" cy="72.5" r="2.125"/><circle cx="257.5" cy="72.5" r="2.125"/><circle cx="262.5" cy="72.5" r="2.125"/><circle cx="267.5" cy="72.5" r="2.125"/><circle cx="272.5" cy="72.5" r="2.125"/><circle cx="277.5" cy="72.5" r="2.125"/><circle cx="282.5" cy="72.5" r="2.125"/></g>
<g fill="#69adfa"><circle cx="17.5" cy="12.5" r="2.125"/><circle cx="282.5" cy="12.5" r="2.125"/><circle cx="12.5" cy="17.5" r="2.125"/><circle cx="287.5" cy="17.5" r="2.125"/><circle cx="12.5" cy="62.5" r="2.125"/><circle cx="287.5" cy="62.5" r="2.125"/><circle cx="17.5" cy="67.5" r="2.125"/><circle cx="282.5" cy="67.5" r="2.125"/></g>
<g fill="#80b6f4"><circle cx="22.5" cy="12.5" r="2.125"/><circle cx="27.5" cy="12.5" r="2.125"/><circle cx="32.5" cy="12.5" r="2.125"/><circle cx="37.5" cy="12.5" r="2.125"/><circle cx="42.5" cy="12.5" r="2.125"/><circle cx="47.5" cy="12.5" r="2.125"/><circle cx="52.5" cy="12.5" r="2.125"/><circle cx="57.5" cy="12.5" r="2.125"/><circle cx="62.5" cy="12.5" r="2.125"/><circle cx="67.5" cy="12.5" r="2.125"/><circle cx="72.5" cy="12.5" r="2.125"/><circle cx="77.5" cy="12.5" r="2.125"/><circle cx="82.5" cy="12.5" r="2.125"/><circle cx="87.5" cy="12.5" r="2.125"/><circle cx="92.5" cy="12.5" r="2.125"/><circle cx="97.5" cy="12.5" r="2.125"/><circle cx="102.5" cy="12.5" r="2.125"/><circle cx="107.5" cy="12.5" r="2.125"/><circle cx="112.5" cy="12.5" r="2.125"/><circle cx="117.5" cy="12.5" r="2.125"/><circle cx="122.5" cy="12.5" r="2.125"/><circle cx="127.5" cy="12.5" r="2.125"/><circle cx="132.5" cy="12.5" r="2.125"/><circle cx="137.5" cy="12.5" r="2.125"/><circle cx="142.5" cy="12.5" r="2.125"/><circle cx="147.5" cy="12.5" r="2.125"/><circle cx="152.5" cy="12.5" r="2.125"/><circle cx="157.5" cy="12.5" r="2.125"/><circle cx="162.5" cy="12.5" r="2.125"/><circle cx="167.5" cy="12.5" r="2.125"/><circle cx="172.5" cy="12.5" r="2.125"/><circle cx="177.5" cy="12.5" r="2.125"/><circle cx="182.5" cy="12.5" r="2.125"/><circle cx="187.5" cy="12.5" r="2.125"/><circle cx="192.5" cy="12.5" r="2.125"/><circle cx="197.5" cy="12.5" r="2.125"/><circle cx="202.5" cy="12.5" r="2.125"/><circle cx="207.5" cy="12.5" r="2.125"/><circle cx="212.5" cy="12.5" r="2.125"/><circle cx="217.5" cy="12.5" r="2.125"/><circle cx="222.5" cy="12.5" r="2.125"/><circle cx="227.5" cy="12.5" r="2.125"/><circle cx="232.5" cy="12.5" r="2.125"/><circle cx="237.5" cy="12.5" r="2.125"/><circle cx="242.5" cy="12.5" r="2.125"/><circle cx="247.5" cy="12.5" r="2.125"/><circle cx="252.5" cy="12.5" r="2.125"/><circle cx="257.5" cy="12.5" r="2.125"/><circle cx="262.5" cy="12.5" r="2.125"/><circle cx="267.5" cy="12.5" r="2.125"/><circle cx="272.5" cy="12.5" r="2.125"/><circle cx="277.5" cy="12.5" r="2.125"/><circle cx="12.5" cy="22.5" r="2.125"/><circle cx="287.5" cy="22.5" r="2.125"/><circle cx="12.5" cy="27.5" r="2.125"/><circle cx="12.5" cy="32.5" r="2.125"/><circle cx="12.5" cy="37.5" r="2.125"/><circle cx="12.5" cy="42.5" r="2.125"/><circle cx="12.5" cy="47.5" r="2.125"/><circle cx="12.5" cy="52.5" r="2.125"/><circle cx="287.5" cy="52.5" r="2.125"/><circle cx="12.5" cy="57.5" r="2.125"/><circle cx="287.5" cy="57.5" r="2.125"/><circle cx="22.5" cy="67.5" r="2.125"/><circle cx="27.5" cy="67.5" r="2.125"/><circle cx="32.5" cy="67.5" r="2.125"/><circle cx="37.5" cy="67.5" r="2.125"/><circle cx="42.5" cy="67.5" r="2.125"/><circle cx="47.5" cy="67.5" r="2.125"/><circle cx="52.5" cy="67.5" r="2.125"/><circle cx="57.5" cy="67.5" r="2.125"/><circle cx="62.5" cy="67.5" r="2.125"/><circle cx="67.5" cy="67.5" r="2.125"/><circle cx="72.5" cy="67.5" r="2.125"/><circle cx="77.5" cy="67.5" r="2.125"/><circle cx="82.5" cy="67.5" r="2.125"/><circle cx="87.5" cy="67.5" r="2.125"/><circle cx="92.5" cy="67.5" r="2.125"/><circle cx="97.5" cy="67.5" r="2.125"/><circle cx="102.5" cy="67.5" r="2.125"/><circle cx="107.5" cy="67.5" r="2.125"/><circle cx="112.5" cy="67.5" r="2.125"/><circle cx="117.5" cy="67.5" r="2.125"/><circle cx="122.5" cy="67.5" r="2.125"/><circle cx="127.5" cy="67.5" r="2.125"/><circle cx="132.5" cy="67.5" r="2.125"/><circle cx="137.5" cy="67.5" r="2.125"/><circle cx="142.5" cy="67.5" r="2.125"/><circle cx="147.5" cy="67.5" r="2.125"/><circle cx="152.5" cy="67.5" r="2.125"/><circle cx="157.5" cy="67.5" r="2.125"/><circle cx="162.5" cy="67.5" r="2.125"/><circle cx="167.5" cy="67.5" r="2.125"/><circle cx="172.5" cy="67.5" r="2.125"/><circle cx="177.5" cy="67.5" r="2.125"/><circle cx="182.5" cy="67.5" r="2.125"/><circle cx="187.5" cy="67.5" r="2.125"/><circle cx="192.5" cy="67.5" r="2.125"/><circle cx="197.5" cy="67.5" r="2.125"/><circle cx="202.5" cy="67.5" r="2.125"/><circle cx="207.5" cy="67.5" r="2.125"/><circle cx="212.5" cy="67.5" r="2.125"/><circle cx="217.5" cy="67.5" r="2.125"/><circle cx="222.5" cy="67.5" r="2.125"/><circle cx="227.5" cy="67.5" r="2.125"/><circle cx="232.5" cy="67.5" r="2.125"/><circle cx="237.5" cy="67.5" r="2.125"/><circle cx="242.5" cy="67.5" r="2.125"/><circle cx="247.5" cy="67.5" r="2.125"/><circle cx="252.5" cy="67.5" r="2.125"/><circle cx="257.5" cy="67.5" r="2.125"/><circle cx="262.5" cy="67.5" r="2.125"/><circle cx="267.5" cy="67.5" r="2.125"/><circle cx="272.5" cy="67.5" r="2.125"/><circle cx="277.5" cy="67.5" r="2.125"/></g>
<g fill="#89baf1"><circle cx="17.5" cy="17.5" r="2.125"/><circle cx="282.5" cy="17.5" r="2.125"/><circle cx="17.5" cy="62.5" r="2.125"/><circle cx="282.5" cy="62.5" r="2.125"/></g>
<g fill="#a1c4eb"><circle cx="22.5" cy="17.5" r="2.125"/><circle cx="277.5" cy="17.5" r="2.125"/><circle cx="17.5" cy="22.5" r="2.125"/><circle cx="282.5" cy="22.5" r="2.125"/><circle cx="17.5" cy="57.5" r="2.125"/><circle cx="282.5" cy="57.5" r="2.125"/><circle cx="22.5" cy="62.5" r="2.125"/><circle cx="277.5" cy="62.5" r="2.125"/></g>
<g fill="#a8c7e9"><circle cx="27.5" cy="17.5" r="2.125"/><circle cx="32.5" cy="17.5" r="2.125"/><circle cx="37.5" cy="17.5" r="2.125"/><circle cx="42.5" cy="17.5" r="2.125"/><circle cx="47.5" cy="17.5" r="2.125"/><circle cx="52.5" cy="17.5" r="2.125"/><circle cx="57.5" cy="17.5" r="2.125"/><circle cx="62.5" cy="17.5" r="2.125"/><circle cx="67.5" cy="17.5" r="2.125"/><circle cx="72.5" cy="17.5" r="2.125"/><circle cx="77.5" cy="17.5" r="2.125"/><circle cx="82.5" cy="17.5" r="2.125"/><circle cx="87.5" cy="17.5" r="2.125"/><circle cx="92.5" cy="17.5" r="2.125"/><circle cx="97.5" cy="17.5" r="2.125"/><circle cx="102.5" cy="17.5" r="2.125"/><circle cx="107.5" cy="17.5" r="2.125"/><circle cx="112.5" cy="17.5" r="2.125"/><circle cx="117.5" cy="17.5" r="2.125"/><circle cx="122.5" cy="17.5" r="2.125"/><circle cx="127.5" cy="17.5" r="2.125"/><circle cx="132.5" cy="17.5" r="2.125"/><circle cx="137.5" cy="17.5" r="2.125"/><circle cx="142.5" cy="17.5" r="2.125"/><circle cx="147.5" cy="17.5" r="2.125"/><circle cx="152.5" cy="17.5" r="2.125"/><circle cx="157.5" cy="17.5" r="2.125"/><circle cx="162.5" cy="17.5" r="2.125"/><circle cx="167.5" cy="17.5" r="2.125"/><circle cx="172.5" cy="17.5" r="2.125"/><circle cx="177.5" cy="17.5" r="2.125"/><circle cx="182.5" cy="17.5" r="2.125"/><circle cx="187.5" cy="17.5" r="2.125"/><circle cx="192.5" cy="17.5" r="2.125"/><circle cx="197.5" cy="17.5" r="2.125"/><circle cx="202.5" cy="17.5" r="2.125"/><circle cx="207.5" cy="17.5" r="2.125"/><circle cx="212.5" cy="17.5" r="2.125"/><circle cx="217.5" cy="17.5" r="2.125"/><circle cx="222.5" cy="17.5" r="2.125"/><circle cx="227.5" cy="17.5" r="2.125"/><circle cx="232.5" cy="17.5" r="2.125"/><circle cx="237.5" cy="17.5" r="2.125"/><circle cx="242.5" cy="17.5" r="2.125"/><circle cx="247.5" cy="17.5" r="2.125"/><circle cx="252.5" cy="17.5" r="2.125"/><circle cx="257.5" cy="17.5" r="2.125"/><circle cx="262.5" cy="17.5" r="2.125"/><circle cx="267.5" cy="17.5" r="2.125"/><circle cx="272.5" cy="17.5" r="2.125"/><circle cx="17.5" cy="27.5" r="2.125"/><circle cx="17.5" cy="32.5" r="2.125"/><circle cx="282.5" cy="32.5" r="2.125"/><circle cx="17.5" cy="37.5" r="2.125"/><circle cx="282.5" cy="37.5" r="2.125"/><circle cx="17.5" cy="42.5" r="2.125"/><circle cx="282.5" cy="42.5" r="2.125"/><circle cx="17.5" cy="47.5" r="2.125"/><circle cx="17.5" cy="52.5" r="2.125"/><circle cx="282.5" cy="52.5" r="2.125"/><circle cx="27.5" cy="62.5" r="2.125"/><circle cx="32.5" cy="62.5" r="2.125"/><circle cx="37.5" cy="62.5" r="2.125"/><circle cx="42.5" cy="62.5" r="2.125"/><circle cx="47.5" cy="62.5" r="2.125"/><circle cx="52.5" cy="62.5" r="2.125"/><circle cx="57.5" cy="62.5" r="2.125"/><circle cx="62.5" cy="62.5" r="2.125"/><circle cx="67.5" cy="62.5" r="2.125"/><circle cx="72.5" cy="62.5" r="2.125"/><circle cx="77.5" cy="62.5" r="2.125"/><circle cx="82.5" cy="62.5" r="2.125"/><circle cx="87.5" cy="62.5" r="2.125"/><circle cx="92.5" cy="62.5" r="2.125"/><circle cx="97.5" cy="62.5" r="2.125"/><circle cx="102.5" cy="62.5" r="2.125"/><circle cx="107.5" cy="62.5" r="2.125"/><circle cx="112.5" cy="62.5" r="2.125"/><circle cx="117.5" cy="62.5" r="2.125"/><circle cx="122.5" cy="62.5" r="2.125"/><circle cx="127.5" cy="62.5" r="2.125"/><circle cx="132.5" cy="62.5" r="2.125"/><circle cx="137.5" cy="62.5" r="2.125"/><circle cx="142.5" cy="62.5" r="2.125"/><circle cx="147.5" cy="62.5" r="2.125"/><circle cx="152.5" cy="62.5" r="2.125"/><circle cx="157.5" cy="62.5" r="2.125"/><circle cx="162.5" cy="62.5" r="2.125"/><circle cx="167.5" cy="62.5" r="2.125"/><circle cx="172.5" cy="62.5" r="2.125"/><circle cx="177.5" cy="62.5" r="2.125"/><circle cx="182.5" cy="62.5" r="2.125"/><circle cx="187.5" cy="62.5" r="2.125"/><circle cx="192.5" cy="62.5" r="2.125"/><circle cx="197.5" cy="62.5" r="2.125"/><circle cx="202.5" cy="62.5" r="2.125"/><circle cx="207.5" cy="62.5" r="2.125"/><circle cx="212.5" cy="62.5" r="2.125"/><circle cx="217.5" cy="62.5" r="2.125"/><circle cx="222.5" cy="62.5" r="2.125"/><circle cx="227.5" cy="62.5" r="2.125"/><circle cx="232.5" cy="62.5" r="2.125"/><circle cx="237.5" cy="62.5" r="2.125"/><circle cx="242.5" cy="62.5" r="2.125"/><circle cx="247.5" cy="62.5" r="2.125"/><circle cx="252.5" cy="62.5" r="2.125"/><circle cx="257.5" cy="62.5" r="2.125"/><circle cx="262.5" cy="62.5" r="2.125"/><circle cx="267.5" cy="62.5" r="2.125"/><circle cx="272.5" cy="62.5" r="2.125"/></g>
<g fill="#c0d1e2"><circle cx="22.5" cy="22.5" r="2.125"/><circle cx="277.5" cy="22.5" r="2.125"/><circle cx="22.5" cy="57.5" r="2.125"/><circle cx="277.5" cy="57.5" r="2.125"/></g>
<g fill="#d0d7de"><circle cx="27.5" cy="22.5" r="2.125"/><circle cx="32.5" cy="22.5" r="2.125"/><circle cx="37.5" cy="22.5" r="2.125"/><circle cx="42.5" cy="22.5" r="2.125"/><circle cx="47.5" cy="22.5" r="2.125"/><circle cx="52.5" cy="22.5" r="2.125"/><circle cx="57.5" cy="22.5" r="2.125"/><circle cx="62.5" cy="22.5" r="2.125"/><circle cx="67.5" cy="22.5" r="2.125"/><circle cx="72.5" cy="22.5" r="2.125"/><circle cx="77.5" cy="22.5" r="2.125"/><circle cx="82.5" cy="22.5" r="2.125"/><circle cx="87.5" cy="22.5" r="2.125"/><circle cx="92.5" cy="22.5" r="2.125"/><circle cx="97.5" cy="22.5" r="2.125"/><circle cx="102.5" cy="22.5" r="2.125"/><circle cx="107.5" cy="22.5" r="2.125"/><circle cx="112.5" cy="22.5" r="2.125"/><circle cx="117.5" cy="22.5" r="2.125"/><circle cx="122.5" cy="22.5" r="2.125"/><circle cx="127.5" cy="22.5" r="2.125"/><circle cx="132.5" cy="22.5" r="2.125"/><circle cx="137.5" cy="22.5" r="2.125"/><circle cx="142.5" cy="22.5" r="2.125"/><circle cx="147.5" cy="22.5" r="2.125"/><circle cx="152.5" cy="22.5" r="2.125"/><circle cx="157.5" cy="22.5" r="2.125"/><circle cx="162.5" cy="22.5" r="2.125"/><circle cx="167.5" cy="22.5" r="2.125"/><circle cx="172.5" cy="22.5" r="2.125"/><circle cx="177.5" cy="22.5" r="2.125"/><circle cx="182.5" cy="22.5" r="2.125"/><circle cx="187.5" cy="22.5" r="2.125"/><circle cx="192.5" cy="22.5" r="2.125"/><circle cx="197.5" cy="22.5" r="2.125"/><circle cx="202.5" cy="22.5" r="2.125"/><circle cx="207.5" cy="22.5" r="2.125"/><circle cx="212.5" cy="22.5" r="2.125"/><circle cx="217.5" cy="22.5" r="2.125"/><circle cx="222.5" cy="22.5" r="2.125"/><circle cx="227.5" cy="22.5" r="2.125"/><circle cx="232.5" cy="22.5" r="2.125"/><circle cx="237.5" cy="22.5" r="2.125"/><circle cx="242.5" cy="22.5" r="2.125"/><circle cx="247.5" cy="22.5" r="2.125"/><circle cx="252.5" cy="22.5" r="2.125"/><circle cx="257.5" cy="22.5" r="2.125"/><circle cx="262.5" cy="22.5" r="2.125"/><circle cx="267.5" cy="22.5" r="2.125"/><circle cx="272.5" cy="22.5" r="2.125"/><circle cx="22.5" cy="27.5" r="2.125"/><circle cx="27.5" cy="27.5" r="2.125"/><circle cx="32.5" cy="27.5" r="2.125"/><circle cx="37.5" cy="27.5" r="2.125"/><circle cx="42.5" cy="27.5" r="2.125"/><circle cx="47.5" cy="27.5" r="2.125"/><circle cx="52.5" cy="27.5" r="2.125"/><circle cx="57.5" cy="27.5" r="2.125"/><circle cx="62.5" cy="27.5" r="2.125"/><circle cx="77.5" cy="27.5" r="2.125"/><circle cx="82.5" cy="27.5" r="2.125"/><circle cx="87.5" cy="27.5" r="2.125"/><circle cx="92.5" cy="27.5" r="2.125"/><circle cx="97.5" cy="27.5" r="2.125"/><circle cx="102.5" cy="27.5" r="2.125"/><circle cx="112.5" cy="27.5" r="2.125"/><circle cx="117.5" cy="27.5" r="2.125"/><circle cx="122.5" cy="27.5" r="2.125"/><circle cx="127.5" cy="27.5" r="2.125"/><circle cx="132.5" cy="27.5" r="2.125"/><circle cx="137.5" cy="27.5" r="2.125"/><circle cx="142.5" cy="27.5" r="2.125"/><circle cx="147.5" cy="27.5" r="2.125"/><circle cx="152.5" cy="27.5" r="2.125"/><circle cx="157.5" cy="27.5" r="2.125"/><circle cx="162.5" cy="27.5" r="2.125"/><circle cx="167.5" cy="27.5" r="2.125"/><circle cx="172.5" cy="27.5" r="2.125"/><circle cx="187.5" cy="27.5" r="2.125"/><circle cx="192.5" cy="27.5" r="2.125"/><circle cx="197.5" cy="27.5" r="2.125"/><circle cx="202.5" cy="27.5" r="2.125"/><circle cx="207.5" cy="27.5" r="2.125"/><circle cx="212.5" cy="27.5" r="2.125"/><circle cx="232.5" cy="27.5" r="2.125"/><circle cx="242.5" cy="27.5" r="2.125"/><circle cx="252.5" cy="27.5" r="2.125"/><circle cx="257.5" cy="27.5" r="2.125"/><circle cx="267.5" cy="27.5" r="2.125"/><circle cx="272.5" cy="27.5" r="2.125"/><circle cx="22.5" cy="32.5" r="2.125"/><circle cx="37.5" cy="32.5" r="2.125"/><circle cx="47.5" cy="32.5" r="2.125"/><circle cx="57.5" cy="32.5" r="2.125"/><circle cx="67.5" cy="32.5" r="2.125"/><circle cx="77.5" cy="32.5" r="2.125"/><circle cx="82.5" cy="32.5" r="2.125"/><circle cx="87.5" cy="32.5" r="2.125"/><circle cx="92.5" cy="32.5" r="2.125"/><circle cx="97.5" cy="32.5" r="2.125"/><circle cx="102.5" cy="32.5" r="2.125"/><circle cx="112.5" cy="32.5" r="2.125"/><circle cx="117.5" cy="32.5" r="2.125"/><circle cx="122.5" cy="32.5" r="2.125"/><circle cx="127.5" cy="32.5" r="2.125"/><circle cx="142.5" cy="32.5" r="2.125"/><circle cx="147.5" cy="32.5" r="2.125"/><circle cx="162.5" cy="32.5" r="2.125"/><circle cx="167.5" cy="32.5" r="2.125"/><circle cx="177.5" cy="32.5" r="2.125"/><circle cx="187.5" cy="32.5" r="2.125"/><circle cx="197.5" cy="32.5" r="2.125"/><circle cx="202.5" cy="32.5" r="2.125"/><circle cx="207.5" cy="32.5" r="2.125"/><circle cx="212.5" cy="32.5" r="2.125"/><circle cx="222.5" cy="32.5" r="2.125"/><circle cx="227.5" cy="32.5" r="2.125"/><circle cx="232.5" cy="32.5" r="2.125"/><circle cx="242.5" cy="32.5" r="2.125"/><circle cx="252.5" cy="32.5" r="2.125"/><circle cx="267.5" cy="32.5" r="2.125"/><circle cx="272.5" cy="32.5" r="2.125"/><circle cx="32.5" cy="37.5" r="2.125"/><circle cx="37.5" cy="37.5" r="2.125"/><circle cx="47.5" cy="37.5" r="2.125"/><circle cx="57.5" cy="37.5" r="2.125"/><circle cx="62.5" cy="37.5" r="2.125"/><circle cx="77.5" cy="37.5" r="2.125"/><circle cx="82.5" cy="37.5" r="2.125"/><circle cx="87.5" cy="37.5" r="2.125"/><circle cx="92.5" cy="37.5" r="2.125"/><circle cx="97.5" cy="37.5" r="2.125"/><circle cx="107.5" cy="37.5" r="2.125"/><circle cx="112.5" cy="37.5" r="2.125"/><circle cx="117.5" cy="37.5" r="2.125"/><circle cx="122.5" cy="37.5" r="2.125"/><circle cx="127.5" cy="37.5" r="2.125"/><circle cx="137.5" cy="37.5" r="2.125"/><circle cx="147.5" cy="37.5" r="2.125"/><circle cx="157.5" cy="37.5" r="2.125"/><circle cx="167.5" cy="37.5" r="2.125"/><circle cx="172.5" cy="37.5" r="2.125"/><circle cx="187.5" cy="37.5" r="2.125"/><circle cx="192.5" cy="37.5" r="2.125"/><circle cx="197.5" cy="37.5" r="2.125"/><circle cx="202.5" cy="37.5" r="2.125"/><circle cx="207.5" cy="37.5" r="2.125"/><circle cx="212.5" cy="37.5" r="2.125"/><circle cx="232.5" cy="37.5" r="2.125"/><circle cx="252.5" cy="37.5" r="2.125"/><circle cx="257.5" cy="37.5" r="2.125"/><circle cx="267.5" cy="37.5" r="2.125"/><circle cx="272.5" cy="37.5" r="2.125"/><circle cx="22.5" cy="42.5" r="2.125"/><circle cx="27.5" cy="42.5" r="2.125"/><circle cx="37.5" cy="42.5" r="2.125"/><circle cx="47.5" cy="42.5" r="2.125"/><circle cx="57.5" cy="42.5" r="2.125"/><circle cx="62.5" cy="42.5" r="2.125"/><circle cx="67.5" cy="42.5" r="2.125"/><circle cx="77.5" cy="42.5" r="2.125"/><circle cx="82.5" cy="42.5" r="2.125"/><circle cx="87.5" cy="42.5" r="2.125"/><circle cx="92.5" cy="42.5" r="2.125"/><circle cx="102.5" cy="42.5" r="2.125"/><circle cx="107.5" cy="42.5" r="2.125"/><circle cx="112.5" cy="42.5" r="2.125"/><circle cx="117.5" cy="42.5" r="2.125"/><circle cx="122.5" cy="42.5" r="2.125"/><circle cx="127.5" cy="42.5" r="2.125"/><circle cx="142.5" cy="42.5" r="2.125"/><circle cx="147.5" cy="42.5" r="2.125"/><circle cx="157.5" cy="42.5" r="2.125"/><circle cx="167.5" cy="42.5" r="2.125"/><circle cx="172.5" cy="42.5" r="2.125"/><circle cx="177.5" cy="42.5" r="2.125"/><circle cx="187.5" cy="42.5" r="2.125"/><circle cx="197.5" cy="42.5" r="2.125"/><circle cx="202.5" cy="42.5" r="2.125"/><circle cx="207.5" cy="42.5" r="2.125"/><circle cx="212.5" cy="42.5" r="2.125"/><circle cx="217.5" cy="42.5" r="2.125"/><circle cx="222.5" cy="42.5" r="2.125"/><circle cx="232.5" cy="42.5" r="2.125"/><circle cx="237.5" cy="42.5" r="2.125"/><circle cx="242.5" cy="42.5" r="2.125"/><circle cx="252.5" cy="42.5" r="2.125"/><circle cx="257.5" cy="42.5" r="2.125"/><circle cx="267.5" cy="42.5" r="2.125"/><circle cx="272.5" cy="42.5" r="2.125"/><circle cx="32.5" cy="47.5" r="2.125"/><circle cx="37.5" cy="47.5" r="2.125"/><circle cx="42.5" cy="47.5" r="2.125"/><circle cx="52.5" cy="47.5" r="2.125"/><circle cx="57.5" cy="47.5" r="2.125"/><circle cx="72.5" cy="47.5" r="2.125"/><circle cx="77.5" cy="47.5" r="2.125"/><circle cx="82.5" cy="47.5" r="2.125"/><circle cx="87.5" cy="47.5" r="2.125"/><circle cx="92.5" cy="47.5" r="2.125"/><circle cx="102.5" cy="47.5" r="2.125"/><circle cx="107.5" cy="47.5" r="2.125"/><circle cx="112.5" cy="47.5" r="2.125"/><circle cx="117.5" cy="47.5" r="2.125"/><circle cx="122.5" cy="47.5" r="2.125"/><circle cx="127.5" cy="47.5" r="2.125"/><circle cx="137.5" cy="47.5" r="2.125"/><circle cx="142.5" cy="47.5" r="2.125"/><circle cx="147.5" cy="47.5" r="2.125"/><circle cx="157.5" cy="47.5" r="2.125"/><circle cx="167.5" cy="47.5" r="2.125"/><circle cx="182.5" cy="47.5" r="2.125"/><circle cx="187.5" cy="47.5" r="2.125"/><circle cx="192.5" cy="47.5" r="2.125"/><circle cx="197.5" cy="47.5" r="2.125"/><circle cx="202.5" cy="47.5" r="2.125"/><circle cx="207.5" cy="47.5" r="2.125"/><circle cx="212.5" cy="47.5" r="2.125"/><circle cx="232.5" cy="47.5" r="2.125"/><circle cx="237.5" cy="47.5" r="2.125"/><circle cx="242.5" cy="47.5" r="2.125"/><circle cx="252.5" cy="47.5" r="2.125"/><circle cx="272.5" cy="47.5" r="2.125"/><circle cx="22.5" cy="52.5" r="2.125"/><circle cx="27.5" cy="52.5" r="2.125"/><circle cx="32.5" cy="52.5" r="2.125"/><circle cx="37.5" cy="52.5" r="2.125"/><circle cx="42.5" cy="52.5" r="2.125"/><circle cx="47.5" cy="52.5" r="2.125"/><circle cx="52.5" cy="52.5" r="2.125"/><circle cx="57.5" cy="52.5" r="2.125"/><circle cx="62.5" cy="52.5" r="2.125"/><circle cx="67.5" cy="52.5" r="2.125"/><circle cx="72.5" cy="52.5" r="2.125"/><circle cx="77.5" cy="52.5" r="2.125"/><circle cx="82.5" cy="52.5" r="2.125"/><circle cx="87.5" cy="52.5" r="2.125"/><circle cx="92.5" cy="52.5" r="2.125"/><circle cx="97.5" cy="52.5" r="2.125"/><circle cx="102.5" cy="52.5" r="2.125"/><circle cx="107.5" cy="52.5" r="2.125"/><circle cx="112.5" cy="52.5" r="2.125"/><circle cx="117.5" cy="52.5" r="2.125"/><circle cx="122.5" cy="52.5" r="2.125"/><circle cx="127.5" cy="52.5" r="2.125"/><circle cx="132.5" cy="52.5" r="2.125"/><circle cx="137.5" cy="52.5" r="2.125"/><circle cx="142.5" cy="52.5" r="2.125"/><circle cx="147.5" cy="52.5" r="2.125"/><circle cx="152.5" cy="52.5" r="2.125"/><circle cx="157.5" cy="52.5" r="2.125"/><circle cx="162.5" cy="52.5" r="2.125"/><circle cx="167.5" cy="52.5" r="2.125"/><circle cx="172.5" cy="52.5" r="2.125"/><circle cx="177.5" cy="52.5" r="2.125"/><circle cx="182.5" cy="52.5" r="2.125"/><circle cx="187.5" cy="52.5" r="2.125"/><circle cx="192.5" cy="52.5" r="2.125"/><circle cx="197.5" cy="52.5" r="2.125"/><circle cx="202.5" cy="52.5" r="2.125"/><circle cx="207.5" cy="52.5" r="2.125"/><circle cx="212.5" cy="52.5" r="2.125"/><circle cx="217.5" cy="52.5" r="2.125"/><circle cx="222.5" cy="52.5" r="2.125"/><circle cx="227.5" cy="52.5" r="2.125"/><circle cx="232.5" cy="52.5" r="2.125"/><circle cx="237.5" cy="52.5" r="2.125"/><circle cx="242.5" cy="52.5" r="2.125"/><circle cx="247.5" cy="52.5" r="2.125"/><circle cx="252.5" cy="52.5" r="2.125"/><circle cx="257.5" cy="52.5" r="2.125"/><circle cx="262.5" cy="52.5" r="2.125"/><circle cx="267.5" cy="52.5" r="2.125"/><circle cx="272.5" cy="52.5" r="2.125"/><circle cx="277.5" cy="52.5" r="2.125"/><circle cx="27.5" cy="57.5" r="2.125"/><circle cx="32.5" cy="57.5" r="2.125"/><circle cx="37.5" cy="57.5" r="2.125"/><circle cx="42.5" cy="57.5" r="2.125"/><circle cx="47.5" cy="57.5" r="2.125"/><circle cx="52.5" cy="57.5" r="2.125"/><circle cx="57.5" cy="57.5" r="2.125"/><circle cx="62.5" cy="57.5" r="2.125"/><circle cx="67.5" cy="57.5" r="2.125"/><circle cx="72.5" cy="57.5" r="2.125"/><circle cx="77.5" cy="57.5" r="2.125"/><circle cx="82.5" cy="57.5" r="2.125"/><circle cx="87.5" cy="57.5" r="2.125"/><circle cx="92.5" cy="57.5" r="2.125"/><circle cx="97.5" cy="57.5" r="2.125"/><circle cx="102.5" cy="57.5" r="2.125"/><circle cx="107.5" cy="57.5" r="2.125"/><circle cx="112.5" cy="57.5" r="2.125"/><circle cx="117.5" cy="57.5" r="2.125"/><circle cx="122.5" cy="57.5" r="2.125"/><circle cx="127.5" cy="57.5" r="2.125"/><circle cx="132.5" cy="57.5" r="2.125"/><circle cx="137.5" cy="57.5" r="2.125"/><circle cx="142.5" cy="57.5" r="2.125"/><circle cx="147.5" cy="57.5" r="2.125"/><circle cx="152.5" cy="57.5" r="2.125"/><circle cx="157.5" cy="57.5" r="2.125"/><circle cx="162.5" cy="57.5" r="2.125"/><circle cx="167.5" cy="57.5" r="2.125"/><circle cx="172.5" cy="57.5" r="2.125"/><circle cx="177.5" cy="57.5" r="2.125"/><circle cx="182.5" cy="57.5" r="2.125"/><circle cx="187.5" cy="57.5" r="2.125"/><circle cx="192.5" cy="57.5" r="2.125"/><circle cx="197.5" cy="57.5" r="2.125"/><circle cx="202.5" cy="57.5" r="2.125"/><circle cx="207.5" cy="57.5" r="2.125"/><circle cx="212.5" cy="57.5" r="2.125"/><circle cx="217.5" cy="57.5" r="2.125"/><circle cx="222.5" cy="57.5" r="2.125"/><circle cx="227.5" cy="57.5" r="2.125"/><circle cx="232.5" cy="57.5" r="2.125"/><circle cx="237.5" cy="57.5" r="2.125"/><circle cx="242.5" cy="57.5" r="2.125"/><circle cx="247.5" cy="57.5" r="2.125"/><circle cx="252.5" cy="57.5" r="2.125"/><circle cx="257.5" cy="57.5" r="2.125"/><circle cx="262.5" cy="57.5" r="2.125"/><circle cx="267.5" cy="57.5" r="2.125"/><circle cx="272.5" cy="57.5" r="2.125"/></g>
</svg>
