<svg xmlns="http://www.w3.org/2000/svg" viewBox="0 0 120 40" width="120" height="40">
<rect width="100%" height="100%" fill="#ffffff"/>
<g fill="#56d364"><circle cx="12.5" cy="27.5" r="2.125"/><circle cx="17.5" cy="27.5" r="2.125"/><circle cx="22.5" cy="27.5" r="2.125"/><circle cx="27.5" cy="27.5" r="2.125"/><circle cx="42.5" cy="27.5" r="2.125"/><circle cx="47.5" cy="27.5" r="2.125"/><circle cx="12.5" cy="32.5" r="2.125"/><circle cx="17.5" cy="32.5" r="2.125"/><circle cx="22.5" cy="32.5" r="2.125"/><circle cx="27.5" cy="32.5" r="2.125"/><circle cx="42.5" cy="32.5" r="2.125"/><circle cx="47.5" cy="32.5" r="2.125"/><circle cx="12.5" cy="37.5" r="2.125"/><circle cx="17.5" cy="37.5" r="2.125"/><circle cx="22.5" cy="37.5" r="2.125"/><circle cx="27.5" cy="37.5" r="2.125"/><circle cx="42.5" cy="37.5" r="2.125"/><circle cx="47.5" cy="37.5" r="2.125"/></g>
<g fill="#d0d7de"><circle cx="2.5" cy="27.5" r="2.125"/><circle cx="7.5" cy="27.5" r="2.125"/><circle cx="52.5" cy="27.5" r="2.125"/><circle cx="57.5" cy="27.5" r="2.125"/><circle cx="2.5" cy="32.5" r="2.125"/><circle cx="7.5" cy="32.5" r="2.125"/><circle cx="52.5" cy="32.5" r="2.125"/><circle cx="57.5" cy="32.5" r="2.125"/><circle cx="2.5" cy="37.5" r="2.125"/><circle cx="7.5" cy="37.5" r="2.125"/><circle cx="52.5" cy="37.5" r="2.125"/><circle cx="57.5" cy="37.5" r="2.125"/></g>
<g fill="#ffa657"><circle cx="32.5" cy="27.5" r="2.125"/><circle cx="37.5" cy="27.5" r="2.125"/><circle cx="32.5" cy="32.5" r="2.125"/><circle cx="37.5" cy="32.5" r="2.125"/><circle cx="32.5" cy="37.5" r="2.125"/><circle cx="37.5" cy="37.5" r="2.125"/></g>
<text x="15" text-anchor="middle" y="15" font-family="monospace" font-size="16" fill="#1f2328">a</text>
<text x="25" text-anchor="middle" y="15" font-family="monospace" font-size="16" fill="#1f2328">日</text>
<text x="45" text-anchor="middle" y="15" font-family="monospace" font-size="16" fill="#1f2328">b</text>
</svg>
